<svg xmlns="http://www.w3.org/2000/svg" width="50" height="51" viewBox="0 0 50 51" fill="none">
  <g clip-path="url(#clip0_556_2019)">
    <path d="M12.7733 17.3769C12.08 17.3769 12.08 18.4315 12.7733 18.4315H14.4237V18.9296C14.4237 19.2226 14.6581 19.4569 14.9511 19.4569C15.244 19.4569 15.4784 19.2226 15.4784 18.9296V18.4315C18.3397 18.3437 18.3593 14.1542 15.4784 14.0663V11.8202H17.1288C17.4218 11.8202 17.6561 11.5858 17.6561 11.2929C17.6561 10.9999 17.4218 10.7655 17.1288 10.7655H15.4784V10.2675C15.4784 9.97452 15.244 9.74014 14.9511 9.74014C14.6581 9.74014 14.4237 9.97452 14.4237 10.2675V10.7655C11.5526 10.8534 11.5526 15.0233 14.4237 15.1112V17.3769H12.7733ZM15.4784 15.1112C16.9432 15.1405 16.9628 17.3378 15.4784 17.3769V15.1112ZM13.3007 12.9335C13.3007 12.3183 13.8085 11.8105 14.4237 11.8105V14.0565C13.8085 14.0565 13.3007 13.5585 13.3007 12.9335ZM47.1776 21.2733H38.2128L37.6854 19.8866V7.621C37.6854 6.28311 36.5917 5.18936 35.2538 5.18936H32.1483L31.2108 2.68936C30.9764 2.08389 30.5272 1.59561 29.9413 1.33194C29.3456 1.0585 28.6913 1.03897 28.0858 1.27334L17.6757 5.19912H10.5077C9.1698 5.19912 8.07605 6.29288 8.07605 7.63077V8.81241L4.93152 9.99405C3.67176 10.4726 3.03699 11.8788 3.51551 13.1288L8.08582 25.2675V28.1874L6.74793 23.4706C6.61121 22.9921 6.18152 22.6796 5.70301 22.6601C4.93152 18.3534 -0.810665 19.9843 0.800663 24.0468C0.400273 24.3105 0.20496 24.7987 0.331913 25.287L3.15418 35.248C3.2909 35.7265 3.72059 36.0487 4.1991 36.0585L7.26551 46.8788C7.2948 46.9472 7.3241 47.0155 7.37293 47.0741L10.5077 50.6972C10.7811 51.039 11.3671 50.8632 11.4257 50.4335L12.1874 45.7069C12.1971 45.6288 12.1874 45.5605 12.1776 45.4823H15.6932L15.996 46.2831C16.4257 47.5136 17.9198 48.1874 19.1307 47.6991L25.0096 45.4823H30.8397V48.3534C30.8397 49.7499 31.9725 50.8827 33.369 50.8827H47.1776C48.5741 50.8827 49.7069 49.7499 49.7069 48.3534V23.8026C49.7069 22.4159 48.5741 21.2733 47.1776 21.2733ZM8.08582 22.2597L4.50184 12.748C4.23816 12.0351 4.58973 11.244 5.30262 10.9706L8.08582 9.92569V22.2597ZM28.4569 2.25967C29.1405 1.98623 29.9804 2.36709 30.2343 3.06045L31.035 5.17959H20.6835L28.4569 2.25967ZM1.74793 21.9374C2.33387 20.7851 4.17957 20.9999 4.49207 22.2597L4.67762 22.8944L1.79676 23.7148C1.62098 23.1483 1.40613 22.4745 1.74793 21.9374ZM4.17957 34.955L1.3573 24.994C1.31824 24.8866 1.53309 24.8866 1.59168 24.8573L5.4784 23.7538C5.53699 23.7538 5.71277 23.6464 5.74207 23.744L8.51551 33.5292L8.56433 33.705C8.5741 33.7343 8.5448 33.7733 8.52527 33.7831C7.50965 34.0663 5.46863 34.6522 4.45301 34.9355C4.38465 34.955 4.1991 35.0624 4.17957 34.955ZM5.23426 35.8144L8.11512 34.994L10.7518 44.3007L11.0155 45.2577L8.14441 46.0683L5.23426 35.8144ZM10.5761 49.1542L8.72058 47.0058L11.0253 46.3515L10.5761 49.1542ZM18.7596 46.7128C18.0761 46.9862 17.2362 46.6151 16.9823 45.912L16.8163 45.4823H22.0214L18.7596 46.7128ZM30.8397 23.8124V44.4374H27.8124H15.3026H11.8846L9.14051 34.7694V34.6523C9.52137 34.3788 9.70691 33.8808 9.57996 33.4315L9.14051 31.8983V7.621C9.14051 6.85928 9.75574 6.24405 10.5175 6.24405H35.2636C36.0253 6.24405 36.6405 6.85928 36.6405 7.621V17.0937V17.0839V21.2733H33.369C31.9725 21.2733 30.8397 22.4159 30.8397 23.8124ZM48.6522 48.3534C48.6522 49.164 47.9882 49.828 47.1776 49.828H33.369C32.5585 49.828 31.8944 49.164 31.8944 48.3534V23.8026C31.8944 22.9921 32.5585 22.328 33.369 22.328H36.6405H38.6132H47.1776C47.9882 22.328 48.6522 22.9921 48.6522 23.8026V48.3534ZM45.9374 24.369H34.619C33.8964 24.369 33.3007 24.955 33.3007 25.6874V30.9804C33.3007 31.703 33.8866 32.2987 34.619 32.2987H45.9374C46.66 32.2987 47.2557 31.7128 47.2557 30.9804V25.6776C47.246 24.955 46.66 24.369 45.9374 24.369ZM46.1913 30.9804C46.1913 31.1269 46.0741 31.244 45.9276 31.244H34.619C34.4725 31.244 34.3554 31.1269 34.3554 30.9804V25.6776C34.3554 25.5312 34.4725 25.414 34.619 25.414H45.9374C46.0839 25.414 46.2011 25.5312 46.2011 25.6776V30.9804H46.1913ZM35.9276 34.9062H34.2577C33.7304 34.9062 33.3007 35.3358 33.3007 35.8632V37.5331C33.3007 38.0605 33.7304 38.4901 34.2577 38.4901H35.9276C36.455 38.4901 36.8847 38.0605 36.8847 37.5331V35.8632C36.8944 35.3358 36.455 34.9062 35.9276 34.9062ZM35.8397 37.4452H34.3554V35.9608H35.8397V37.4452ZM41.1132 34.9062H39.4432C38.9159 34.9062 38.4862 35.3358 38.4862 35.8632V37.5331C38.4862 38.0605 38.9159 38.4901 39.4432 38.4901H41.1132C41.6405 38.4901 42.0702 38.0605 42.0702 37.5331V35.8632C42.0702 35.3358 41.6405 34.9062 41.1132 34.9062ZM41.0155 37.4452H39.5311V35.9608H41.0155V37.4452ZM46.2889 34.9062H44.619C44.0917 34.9062 43.662 35.3358 43.662 35.8632V37.5331C43.662 38.0605 44.0917 38.4901 44.619 38.4901H46.2889C46.8163 38.4901 47.246 38.0605 47.246 37.5331V35.8632C47.246 35.3358 46.8163 34.9062 46.2889 34.9062ZM46.1913 37.4452H44.7069V35.9608H46.1913V37.4452ZM35.9276 39.5644H34.2577C33.7304 39.5644 33.3007 39.994 33.3007 40.5214V42.1913C33.3007 42.7187 33.7304 43.1483 34.2577 43.1483H35.9276C36.455 43.1483 36.8847 42.7187 36.8847 42.1913V40.5214C36.8944 39.994 36.455 39.5644 35.9276 39.5644ZM35.8397 42.0937H34.3554V40.6093H35.8397V42.0937ZM41.1132 39.5644H39.4432C38.9159 39.5644 38.4862 39.994 38.4862 40.5214V42.1913C38.4862 42.7187 38.9159 43.1483 39.4432 43.1483H41.1132C41.6405 43.1483 42.0702 42.7187 42.0702 42.1913V40.5214C42.0702 39.994 41.6405 39.5644 41.1132 39.5644ZM41.0155 42.0937H39.5311V40.6093H41.0155V42.0937ZM46.2889 39.5644H44.619C44.0917 39.5644 43.662 39.994 43.662 40.5214V42.1913C43.662 42.7187 44.0917 43.1483 44.619 43.1483H46.2889C46.8163 43.1483 47.246 42.7187 47.246 42.1913V40.5214C47.246 39.994 46.8163 39.5644 46.2889 39.5644ZM46.1913 42.0937H44.7069V40.6093H46.1913V42.0937ZM35.9276 44.2128H34.2577C33.7304 44.2128 33.3007 44.6425 33.3007 45.1698V46.8397C33.3007 47.3671 33.7304 47.7968 34.2577 47.7968H35.9276C36.455 47.7968 36.8847 47.3671 36.8847 46.8397V45.1698C36.8944 44.6425 36.455 44.2128 35.9276 44.2128ZM35.8397 46.7519H34.3554V45.2675H35.8397V46.7519ZM41.1132 44.2128H39.4432C38.9159 44.2128 38.4862 44.6425 38.4862 45.1698V46.8397C38.4862 47.3671 38.9159 47.7968 39.4432 47.7968H41.1132C41.6405 47.7968 42.0702 47.3671 42.0702 46.8397V45.1698C42.0702 44.6425 41.6405 44.2128 41.1132 44.2128ZM41.0155 46.7519H39.5311V45.2675H41.0155V46.7519ZM46.2889 44.2128H44.619C44.0917 44.2128 43.662 44.6425 43.662 45.1698V46.8397C43.662 47.3671 44.0917 47.7968 44.619 47.7968H46.2889C46.8163 47.7968 47.246 47.3671 47.246 46.8397V45.1698C47.246 44.6425 46.8163 44.2128 46.2889 44.2128ZM46.1913 46.7519H44.7069V45.2675H46.1913V46.7519ZM32.6464 11.664H20.537C19.8436 11.664 19.8534 10.6093 20.537 10.6093H32.6464C33.3397 10.619 33.33 11.664 32.6464 11.664ZM32.6464 15.5605H20.537C19.8436 15.5605 19.8534 14.5058 20.537 14.5058H32.6464C33.3397 14.5155 33.33 15.5605 32.6464 15.5605ZM32.6464 19.4569H20.537C19.8436 19.4569 19.8534 18.4023 20.537 18.4023H32.6464C33.3397 18.4023 33.33 19.4569 32.6464 19.4569ZM28.203 23.3534H12.246C11.5526 23.3534 11.5624 22.2987 12.246 22.2987H28.1932C28.8964 22.2987 28.8866 23.3437 28.203 23.3534ZM28.203 27.2401H12.246C11.5526 27.2401 11.5624 26.1855 12.246 26.1855H28.1932C28.8964 26.1952 28.8866 27.2401 28.203 27.2401ZM28.203 31.1366H12.246C11.5526 31.1366 11.5624 30.0819 12.246 30.0819H28.1932C28.8964 30.0819 28.8866 31.1366 28.203 31.1366ZM28.203 35.0331H12.246C11.5526 35.0331 11.5624 33.9784 12.246 33.9784H28.1932C28.8964 33.9784 28.8866 35.0233 28.203 35.0331ZM28.203 38.9198H12.246C11.5526 38.9198 11.5624 37.8651 12.246 37.8651H28.1932C28.8964 37.8749 28.8866 38.9198 28.203 38.9198Z" fill="#030917"/>
  </g>
  <defs>
    <clipPath id="clip0_556_2019">
      <rect width="50" height="50" fill="white" transform="translate(-0.00439453 0.820068)"/>
    </clipPath>
  </defs>
</svg>