<svg xmlns="http://www.w3.org/2000/svg" width="50" height="50" viewBox="0 0 50 50" fill="none">
  <g clip-path="url(#clip0_632_1560)">
    <path d="M49.8994 31.0993C49.8994 29.695 48.7565 28.5521 47.3522 28.5521H46.9964C47.3159 28.1263 47.5123 27.603 47.5123 27.0309C47.5123 25.8727 46.7311 24.9033 45.6714 24.5939C45.6714 24.2611 45.6719 7.99082 45.6719 6.45371C45.6719 4.45166 44.0427 2.82246 42.0406 2.82246H38.1211V0.618848C38.1211 0.332129 37.8891 0.100098 37.6023 0.100098C37.3156 0.100098 37.0836 0.332129 37.0836 0.618848V2.82256H34.8627V0.618848C34.8627 0.332129 34.6307 0.100098 34.3439 0.100098C34.0572 0.100098 33.8252 0.332129 33.8252 0.618848V2.82256H11.9473V0.618848C11.9473 0.332129 11.7152 0.100098 11.4285 0.100098C11.1418 0.100098 10.9098 0.332129 10.9098 0.618848V2.82256H8.68887V0.618848C8.68887 0.332129 8.45684 0.100098 8.17012 0.100098C7.8834 0.100098 7.65137 0.332129 7.65137 0.618848V2.82256H3.73135C1.7293 2.82256 0.100098 4.45176 0.100098 6.45381C0.103418 33.9316 0.104395 41.8074 0.104688 43.7444V43.8289V43.8405V43.9957V44.0934V44.103V44.286C0.104688 46.2881 1.73389 47.9173 3.73594 47.9173H23.8144C25.3678 49.1549 27.3301 49.9001 29.4661 49.9001C41.6896 49.9001 47.2849 49.8985 47.3522 49.8985C48.7565 49.8985 49.8994 48.7562 49.8994 47.352C49.8994 45.9441 48.7565 44.7992 47.3522 44.7992H47.005C47.3201 44.3757 47.5128 43.8568 47.5128 43.2901C47.5128 42.7202 47.3218 42.2002 47.0085 41.7754H47.3522C48.7565 41.7754 49.8994 40.6305 49.8994 39.2227C49.8994 37.8184 48.7565 36.6761 47.3522 36.6761H47.0088C47.3219 36.2515 47.5129 35.7314 47.5129 35.1613C47.5129 34.5936 47.3224 34.0753 47.0099 33.6517H47.3523C48.7566 33.6516 49.8994 32.5066 49.8994 31.0993ZM46.4749 27.031C46.4749 27.8648 45.7966 28.5432 44.9627 28.5432C41.3921 28.5432 33.0286 28.5432 29.1085 28.5432C28.2746 28.5432 27.5958 27.8648 27.5958 27.031C27.5958 26.1971 28.2746 25.5188 29.1085 25.5188H44.9627C45.7966 25.5188 46.4749 26.1971 46.4749 27.031ZM29.0331 31.7393C24.2211 31.9675 20.3738 35.941 20.3738 40.8071C20.3738 41.2856 20.422 41.7521 20.4937 42.2109H5.81094V18.1458H39.9652V24.4813H29.1085C27.7022 24.4813 26.5583 25.6251 26.5583 27.031C26.5583 28.4368 27.7021 29.5807 29.1085 29.5807H29.4583C29.1319 30.0202 28.9469 30.5447 28.9469 31.0994C28.9469 31.3174 28.9798 31.5313 29.0331 31.7393ZM1.1376 6.45371C1.1376 5.02363 2.30127 3.85996 3.73135 3.85996H7.65137V6.06416C7.65137 6.35088 7.8834 6.58291 8.17012 6.58291C8.45684 6.58291 8.68887 6.35088 8.68887 6.06416V3.85996H10.9098V6.06416C10.9098 6.35088 11.1418 6.58291 11.4285 6.58291C11.7152 6.58291 11.9473 6.35088 11.9473 6.06416V3.85996H33.8254V6.06416C33.8254 6.35088 34.0574 6.58291 34.3441 6.58291C34.6309 6.58291 34.8629 6.35088 34.8629 6.06416V3.85996H37.0838V6.06416C37.0838 6.35088 37.3158 6.58291 37.6025 6.58291C37.8893 6.58291 38.1213 6.35088 38.1213 6.06416V3.85996H42.0408C43.4709 3.85996 44.6346 5.02363 44.6346 6.45371V12.437H1.1376V6.45371ZM3.73594 46.8796C2.30586 46.8796 1.14219 45.7159 1.14219 44.2858V13.4771H44.634V24.4813H41.0027C40.8082 18.3011 41.4316 17.1083 40.484 17.1083C4.26631 17.3437 4.77344 16.6163 4.77344 17.6271V42.7296C4.77344 43.0163 5.00547 43.2483 5.29219 43.2483H20.7163C21.0986 44.6165 21.7926 45.8521 22.7181 46.8796H3.73594ZM21.4113 40.8071C21.4113 36.3669 25.0248 32.7549 29.4661 32.7549C33.9063 32.7549 37.5184 36.3669 37.5184 40.8071C37.5184 45.2489 33.9063 48.8624 29.4661 48.8624C25.0249 48.8624 21.4113 45.2489 21.4113 40.8071ZM35.0523 33.6516C42.9894 33.6551 44.8307 33.6375 45.1062 33.6597C45.8868 33.7301 46.4755 34.3755 46.4755 35.1612C46.4755 36.0147 45.7911 36.676 44.9607 36.676H37.5527C36.9463 35.4939 36.0903 34.4638 35.0523 33.6516ZM47.3523 45.8365C48.1847 45.8365 48.862 46.5164 48.862 47.3518C48.862 48.1841 48.1847 48.8609 47.3523 48.8609H33.6709C35.0288 48.1486 36.1861 47.1063 37.0324 45.8366C40.9151 45.8365 43.538 45.8365 47.3523 45.8365ZM37.6205 44.799C38.0782 43.8676 38.3884 42.8515 38.5028 41.7752C41.0995 41.777 44.9271 41.7688 45.1062 41.7833C45.8868 41.8532 46.4755 42.5012 46.4755 43.2899C46.4755 44.1223 45.7962 44.799 44.9607 44.799H37.6205ZM47.3523 37.7134C48.1847 37.7134 48.862 38.3901 48.862 39.2225C48.862 40.0578 48.1847 40.7377 47.3523 40.7377C45.2808 40.7377 40.6089 40.7377 38.5523 40.7377C38.5442 39.6755 38.3464 38.66 38.0021 37.7134H47.3523ZM33.3767 32.6141C32.3797 32.1362 31.2854 31.8351 30.1292 31.751C30.0345 31.5475 29.9845 31.326 29.9845 31.0994C29.9845 30.2525 30.6641 29.5897 31.4941 29.5897H47.3523C48.1847 29.5897 48.862 30.2671 48.862 31.0994C48.862 31.9348 48.1847 32.6142 47.3523 32.6142C42.2686 32.6141 38.6053 32.6141 33.3767 32.6141Z" fill="#030917"/>
    <path d="M29.0914 39.0661H30.9688C31.2556 39.0661 31.4876 38.8341 31.4876 38.5474C31.4876 38.2606 31.2556 38.0286 30.9688 38.0286H29.9835V37.6081C29.9835 37.3214 29.7515 37.0894 29.4647 37.0894C29.178 37.0894 28.946 37.3214 28.946 37.6081V38.0433C28.1056 38.1183 27.4419 38.8185 27.4419 39.678C27.4419 40.5874 28.182 41.3274 29.0913 41.3274H29.8386C30.176 41.3274 30.45 41.6015 30.45 41.9389C30.45 42.2763 30.176 42.5508 29.8386 42.5508H27.9606C27.6739 42.5508 27.4419 42.7828 27.4419 43.0695C27.4419 43.3562 27.6739 43.5883 27.9606 43.5883H28.946V44.0093C28.946 44.296 29.178 44.528 29.4647 44.528C29.7515 44.528 29.9835 44.296 29.9835 44.0093V43.5736C30.8242 43.4989 31.4876 42.7985 31.4876 41.9389C31.4876 41.0295 30.7479 40.2899 29.8387 40.2899H29.0914C28.754 40.2899 28.4795 40.0153 28.4795 39.678C28.4795 39.3407 28.754 39.0661 29.0914 39.0661Z" fill="#030917"/>
    <path d="M29.4654 34.2954C25.8737 34.2954 22.9517 37.2169 22.9517 40.8076C22.9517 44.3993 25.8736 47.3214 29.4654 47.3214C33.0562 47.3214 35.9776 44.3994 35.9776 40.8076C35.9776 37.2169 33.0562 34.2954 29.4654 34.2954ZM29.4654 46.2839C26.4456 46.2839 23.9892 43.8274 23.9892 40.8076C23.9892 37.7889 26.4456 35.3329 29.4654 35.3329C32.4842 35.3329 34.9401 37.7889 34.9401 40.8076C34.9401 43.8274 32.4842 46.2839 29.4654 46.2839Z" fill="#030917"/>
  </g>
  <defs>
    <clipPath id="clip0_632_1560">
      <rect width="50" height="50" fill="white"/>
    </clipPath>
  </defs>
</svg>