<svg xmlns="http://www.w3.org/2000/svg" width="51" height="51" viewBox="0 0 51 51" fill="none">
  <g clip-path="url(#clip0_556_2049)">
    <path d="M1.15374 35.077C2.15374 36.077 3.84605 36.077 4.92297 35.077L10.846 29.1539C11.4614 29.5385 12.0768 29.8462 12.6922 30.077V47.077C12.6922 48.3847 13.6922 49.3847 14.9999 49.3847C40.5383 49.3078 39.4614 49.6155 39.846 49.1539C49.9999 39.0001 49.5384 39.6155 49.5384 39.1539V5.00007C49.5384 3.69238 48.5384 2.69238 47.2307 2.69238H14.923C13.6153 2.69238 12.6153 3.69238 12.6153 5.00007V9.00007C11.1537 9.53854 9.76912 10.3847 8.6922 11.5385C4.99989 15.3078 4.46143 21.0001 7.15374 25.3078L1.23066 31.2308C0.153738 32.3078 0.153738 34.0001 1.15374 35.077ZM40.1537 46.6155V39.7693H46.9999L40.1537 46.6155ZM14.2307 5.00007C14.2307 4.53854 14.5384 4.23084 14.9999 4.23084H47.3076C47.7691 4.23084 48.0768 4.53854 48.0768 5.00007V38.2308H39.3845C39.3076 38.2308 39.1537 38.2308 39.0768 38.3078C38.7691 38.4616 38.6153 38.6924 38.6153 39.0001V47.6924H14.9999C14.5384 47.6924 14.2307 47.3847 14.2307 46.9232V30.4616C18.0768 31.3078 21.923 30.1539 24.6153 27.4616C28.9999 23.077 28.9999 15.9232 24.6153 11.5385C21.923 8.84623 18.0768 7.69238 14.2307 8.53854V5.00007ZM9.84605 12.6155C13.6153 8.84623 19.7691 8.84623 23.5384 12.6155C27.3076 16.3847 27.3076 22.5385 23.5384 26.3078C19.6922 30.1539 13.5384 30.077 9.84605 26.3078C6.07681 22.5385 6.07681 16.3847 9.84605 12.6155ZM2.23066 32.3847L7.99989 26.6155C8.23066 26.9232 8.46143 27.1539 8.76912 27.4616C8.99989 27.6924 9.30758 28.0001 9.61528 28.2308L3.84605 33.9232C3.38451 34.3847 2.6922 34.3847 2.30758 33.9232C1.84605 33.5385 1.84605 32.8462 2.23066 32.3847Z" fill="#030917"/>
    <path d="M24.3076 38.2307C23.7692 37.8461 23.1538 37.5384 22.3845 37.5384C20.6922 37.5384 19.3076 38.923 19.3076 40.6153C19.3076 42.3076 20.6922 43.6922 22.3845 43.6922C24.0768 43.6922 25.4615 42.3076 25.4615 40.6153C25.4615 40.1538 25.3845 39.7692 25.2307 39.3846L31.3076 34.7692C31.8461 35.1538 32.4615 35.4615 33.2307 35.4615C34.923 35.4615 36.3076 34.0769 36.3076 32.3846C36.3076 31.2307 35.6922 30.3076 34.7692 29.7692L36.1538 24.923H36.2307C37.923 24.923 39.3076 23.5384 39.3076 21.8461C39.3076 20.923 38.923 20.1538 38.2307 19.5384L40.923 14.3076C41.1538 14.3846 41.3845 14.3846 41.6153 14.3846C43.3076 14.3846 44.6922 12.9999 44.6922 11.3076C44.6922 9.61533 43.3076 8.23071 41.6153 8.23071C39.923 8.23071 38.5384 9.61533 38.5384 11.3076C38.5384 12.2307 38.923 12.9999 39.6153 13.6153L36.923 18.8461C36.6922 18.7692 36.4615 18.7692 36.2307 18.7692C34.5384 18.7692 33.1538 20.1538 33.1538 21.8461C33.1538 22.9999 33.7692 23.923 34.6922 24.4615L33.3076 29.3076H33.2307C31.5384 29.3076 30.1538 30.6922 30.1538 32.3846C30.1538 32.8461 30.2307 33.2307 30.3845 33.6153L24.3076 38.2307ZM41.6922 9.76917C42.5384 9.76917 43.2307 10.4615 43.2307 11.3076C43.2307 12.1538 42.5384 12.8461 41.6922 12.8461C40.8461 12.8461 40.1538 12.1538 40.1538 11.3076C40.1538 10.4615 40.8461 9.76917 41.6922 9.76917ZM36.3076 20.3076C37.1538 20.3076 37.8461 20.9999 37.8461 21.8461C37.8461 22.6923 37.1538 23.3846 36.3076 23.3846C35.4615 23.3846 34.7692 22.6923 34.7692 21.8461C34.7692 20.9999 35.4615 20.3076 36.3076 20.3076ZM22.3845 42.2307C21.5384 42.2307 20.8461 41.5384 20.8461 40.6922C20.8461 39.8461 21.5384 39.1538 22.3845 39.1538C22.8461 39.1538 23.3076 39.3846 23.6153 39.7692C23.8461 39.9999 23.923 40.3846 23.923 40.6922C23.923 41.5384 23.2307 42.2307 22.3845 42.2307ZM33.2307 30.8461C33.3845 30.8461 33.5384 30.8461 33.6922 30.923C34.3076 31.0769 34.7692 31.6922 34.7692 32.3846C34.7692 33.2307 34.0768 33.923 33.2307 33.923C32.3845 33.923 31.6922 33.2307 31.6922 32.3846C31.6922 31.5384 32.3845 30.8461 33.2307 30.8461Z" fill="#030917"/>
    <path d="M28 9H29.5385V10.5385H28V9Z" fill="#030917"/>
    <path d="M32.6152 9H34.1537V10.5385H32.6152V9Z" fill="#030917"/>
    <path d="M28.769 41.4614H30.3075V42.9999H28.769V41.4614Z" fill="#030917"/>
    <path d="M33.3848 41.4614H34.9232V42.9999H33.3848V41.4614Z" fill="#030917"/>
    <path d="M12.5383 23.923L15.7691 19.1538C16.4614 19.3846 16.9998 19.3846 17.6922 19.1538L20.9229 23.923C21.1537 24.3076 21.6152 24.3846 21.9999 24.1538C22.3845 23.923 22.4614 23.4615 22.2306 23.0769L18.9999 18.3846C19.5383 17.8461 19.846 17.0769 19.846 16.3076C19.846 14.6153 18.4614 13.2307 16.7691 13.2307C15.0768 13.2307 13.6922 14.6153 13.6922 16.3076C13.6922 17.1538 13.9998 17.8461 14.5383 18.3846L11.3075 23.0769C11.0768 23.4615 11.1537 23.923 11.5383 24.1538C11.846 24.3846 12.3075 24.3076 12.5383 23.923ZM16.6922 14.6923C17.5383 14.6923 18.2306 15.3846 18.2306 16.2307C18.2306 17.0769 17.5383 17.7692 16.6922 17.7692C15.846 17.7692 15.1537 17.0769 15.1537 16.2307C15.1537 15.3846 15.846 14.6923 16.6922 14.6923Z" fill="#030917"/>
  </g>
  <defs>
    <clipPath id="clip0_556_2049">
      <rect width="50" height="50" fill="white" transform="translate(0.310547 0.591309)"/>
    </clipPath>
  </defs>
</svg>