<svg xmlns="http://www.w3.org/2000/svg" width="50" height="36" viewBox="0 0 50 36" fill="none">
  <path d="M41.1665 3.11517H2.22527C1.00131 3.11517 0 4.11649 0 5.34035V29.8178C0 31.0415 1.00131 32.043 2.22527 32.043H41.1665C42.3903 32.043 43.3918 31.0417 43.3918 29.8178V5.34035C43.3917 4.11649 42.3904 3.11517 41.1665 3.11517ZM40.3314 4.78397L22.9759 17.8017C22.6639 18.0391 22.1849 18.1877 21.6958 18.1855C21.2068 18.1877 20.7279 18.0391 20.4157 17.8017L3.06022 4.78397H40.3314ZM31.0607 18.6606L40.5179 30.343C40.5274 30.3547 40.539 30.3636 40.5491 30.3742H2.84267C2.85267 30.3631 2.86436 30.3547 2.87385 30.343L12.331 18.6606C12.6208 18.3024 12.5659 17.7772 12.207 17.4867C11.8487 17.197 11.3235 17.2519 11.0337 17.6102L1.66889 29.1786V5.82707L19.4149 19.1366C20.082 19.6334 20.8935 19.8521 21.6957 19.8543C22.4967 19.8526 23.309 19.6339 23.9765 19.1366L41.7225 5.82707V29.1784L32.3579 17.6102C32.0681 17.252 31.5424 17.1969 31.1847 17.4867C30.8258 17.7765 30.7708 18.3024 31.0607 18.6606Z" fill="#030917"/>
</svg>