<svg xmlns="http://www.w3.org/2000/svg" width="50" height="51" viewBox="0 0 50 51" fill="none">
  <g clip-path="url(#clip0_171_9)">
    <path fill-rule="evenodd" clip-rule="evenodd" d="M18.5037 18.2092C18.0686 18.2092 17.7147 17.8546 17.7147 17.4195C17.7147 16.9845 18.0686 16.6306 18.5037 16.6306C18.9387 16.6306 19.2933 16.9845 19.2933 17.4195C19.2933 17.8546 18.9387 18.2092 18.5037 18.2092ZM18.5037 15.1141C17.2324 15.1141 16.1981 16.1483 16.1981 17.4196C16.1981 18.6916 17.2324 19.7252 18.5037 19.7252C19.7756 19.7252 20.8092 18.6916 20.8092 17.4196C20.8092 16.1483 19.7756 15.1141 18.5037 15.1141ZM17.7154 6.76776C17.9783 6.50935 18.2382 6.50004 18.5861 6.50004C19.0857 6.50004 19.5366 6.82816 19.4772 7.25517L18.6647 13.0768C18.6371 13.1408 18.3714 13.1398 18.3434 13.0768L17.5308 7.25517C17.5135 7.13062 17.5186 6.96191 17.7154 6.76776ZM16.8421 13.2952C16.9505 14.0714 17.6587 14.6431 18.5151 14.6431C19.3488 14.6431 20.0585 14.0631 20.1658 13.2952L20.9791 7.46407C21.1697 6.09722 19.9968 4.98355 18.586 4.98355H18.4211C17.0102 4.98355 15.8382 6.09802 16.0287 7.46407L16.8421 13.2952ZM7.89597 19.1949C7.51813 19.8495 7.98532 20.6604 8.74238 20.6604H28.2655C29.0226 20.6604 29.4897 19.8489 29.1114 19.1949L19.3501 2.29027C18.9714 1.63041 18.0355 1.62973 17.6572 2.29027L7.89597 19.1949ZM30.4249 18.4366L27.0589 12.6066C27.9807 12.0682 29.022 11.7864 30.1074 11.7864C33.4498 11.7864 36.1686 14.5052 36.1686 17.8488C36.1686 21.1912 33.4498 23.9107 30.1074 23.9107C28.4874 23.9107 26.9785 23.2801 25.8593 22.1769H28.2658C30.1841 22.1769 31.3849 20.1008 30.4249 18.4366ZM27.559 7.95727C27.8107 7.89335 28.0119 7.70488 28.0918 7.45828L28.845 5.1425H31.369L32.1215 7.45828C32.2014 7.70488 32.4027 7.89335 32.6544 7.95727C33.5813 8.19615 34.4706 8.5648 35.2972 9.05413C35.5208 9.1864 35.7968 9.19537 36.0281 9.07718L38.1982 7.97135L39.9843 9.75623L38.8778 11.9276C38.7603 12.1589 38.7686 12.4342 38.9008 12.6572C39.3902 13.4838 39.7588 14.3737 39.9977 15.3013C40.0609 15.5523 40.25 15.7529 40.4966 15.8328L42.8136 16.5859V19.1112L40.4966 19.8631C40.25 19.943 40.0622 20.1436 39.9977 20.3958C39.7588 21.3222 39.3902 22.2121 38.9008 23.0387C38.7686 23.2629 38.7603 23.5376 38.8778 23.7695L39.9843 25.9403L38.1982 27.7252L36.0281 26.6201C35.7968 26.5013 35.5208 26.5096 35.2972 26.6418C34.4706 27.1311 33.5814 27.5003 32.6544 27.7386C32.4027 27.8031 32.2015 27.9909 32.1215 28.2382L31.369 30.5545H28.845L28.0918 28.2387C28.0119 27.9921 27.8107 27.8031 27.559 27.7385C26.6327 27.5009 25.7428 27.1322 24.9163 26.6416C24.6927 26.5106 24.4167 26.5011 24.1854 26.62L22.0153 27.7251L20.2292 25.9402L21.3363 23.7694C21.4532 23.5376 21.4455 23.2623 21.3127 23.0386C21.1472 22.7594 20.9951 22.4713 20.8585 22.1768H23.8865C25.3053 24.219 27.6 25.4272 30.1074 25.4272C34.286 25.4272 37.6852 22.0267 37.6852 17.8488C37.6852 13.6689 34.286 10.2698 30.1074 10.2698C28.7532 10.2698 27.4518 10.6231 26.3007 11.2938L24.9847 9.01451C25.7928 8.54561 26.6589 8.18854 27.559 7.95727ZM8.74238 22.1769H19.2063C19.3795 22.61 19.5762 23.0342 19.7998 23.4443L18.6282 25.7421C18.4801 26.0354 18.5363 26.3905 18.7675 26.6223L21.3318 29.1866C21.5644 29.4192 21.9202 29.4748 22.2121 29.3265L24.5112 28.155C25.2325 28.5478 25.9913 28.8627 26.7759 29.0947L27.5724 31.5472C27.674 31.8595 27.9652 32.0703 28.2936 32.0703H31.9196C32.2479 32.0703 32.5392 31.8595 32.6409 31.5472L33.4374 29.0947C34.2232 28.8628 34.9821 28.5472 35.7027 28.155L38.0012 29.3265C38.2931 29.4747 38.6489 29.4192 38.8815 29.1866L41.4458 26.6223C41.6771 26.3905 41.734 26.0352 41.5852 25.7421L40.4142 23.4443C40.8057 22.7231 41.1214 21.9641 41.3539 21.179L43.8051 20.3824C44.1174 20.2803 44.3296 19.9889 44.3296 19.6618V16.0352C44.3296 15.7068 44.1176 15.4155 43.8051 15.3146L41.3526 14.5173C41.1207 13.7316 40.8057 12.9727 40.4142 12.2521L41.5852 9.95356C41.734 9.66166 41.6771 9.30584 41.4458 9.07321L38.8815 6.51026C38.649 6.27774 38.2932 6.22086 38.0012 6.37039L35.7027 7.54071C34.9808 7.14844 34.2232 6.8335 33.4374 6.60166L32.641 4.14987C32.5394 3.83753 32.248 3.6267 31.9197 3.6267H28.2937C27.9654 3.6267 27.674 3.83753 27.5725 4.14987L26.776 6.60166C25.9909 6.8335 25.2319 7.14844 24.5113 7.54071L23.9786 7.26981L20.6629 1.53004C19.7016 -0.132682 17.3034 -0.130184 16.3445 1.53004L6.58316 18.4366C5.623 20.0989 6.82227 22.1769 8.74238 22.1769ZM43.2423 33.4363C44.9595 31.6795 45.1767 30.9519 45.2028 30.7839C44.916 30.4562 44.5914 30.3999 43.8345 30.4069C43.5764 30.4089 42.6584 30.61 39.6943 32.4294C37.7516 33.6221 35.5694 35.1151 33.9756 36.2055C33.1477 36.7715 32.4334 37.2608 31.9696 37.5585C31.1948 38.0561 30.37 38.2925 29.4513 38.2784L28.9792 38.2714C28.4215 39.3661 27.1813 40.0427 26.001 39.6129L21.5471 37.9935L19.5508 38.2867C19.1369 38.348 18.7516 38.0612 18.6909 37.6466C18.6296 37.2332 18.9164 36.8474 19.331 36.7867L21.5158 36.4654C21.6403 36.4469 21.7675 36.4603 21.885 36.5024L26.5184 38.1883C27.0322 38.375 27.5933 37.8578 27.7271 37.3227L27.7674 37.1629C27.9021 36.625 27.6434 36.0878 27.1381 35.8584L20.4446 32.8164C19.8071 32.5263 19.1427 32.5488 18.5256 32.8809L10.5677 37.1654L14.2186 44.9004C17.9756 43.1615 19.3139 43.3525 21.2643 43.8316C22.5433 44.1459 24.1333 44.5368 27.5835 44.0456C29.3786 43.79 33.6754 41.2794 38.0348 37.9403C40.0986 36.3595 41.948 34.7592 43.2423 33.4363ZM13.3835 47.1984C13.3151 47.3894 13.1765 47.5409 12.9957 47.6245L10.6826 48.7003C10.3108 48.8727 9.86547 48.7086 9.68733 48.333L4.86231 38.1079C4.68837 37.7389 4.85629 37.2901 5.2271 37.1183L7.53902 36.0426C7.91141 35.8701 8.35738 36.0343 8.53495 36.4099L13.3606 46.6356C13.4435 46.8113 13.4511 47.0113 13.3835 47.1984ZM46.4376 29.8972C45.689 28.9555 44.7741 28.8846 43.8217 28.891C42.1026 28.9051 37.779 31.7664 33.1194 34.9541C32.3017 35.5131 31.5952 35.9973 31.1492 36.2835C30.5229 36.6859 30.0325 36.7693 29.3139 36.7607C29.2673 35.791 28.6872 34.8979 27.7654 34.4782L21.0724 31.4361C20.0018 30.95 18.8417 30.9889 17.8068 31.546L9.91985 35.7929L9.90577 35.7629C9.3742 34.6361 8.02574 34.1448 6.90004 34.668L4.58744 35.7425C3.4572 36.2689 2.95844 37.6262 3.49115 38.7546L8.31685 48.9803C8.85421 50.1192 10.2108 50.5923 11.3226 50.0752L13.6345 49.0007C14.6605 48.5236 15.1778 47.3603 14.8432 46.2824C18.3171 44.6694 19.3138 44.9134 20.9024 45.3044C22.3072 45.65 24.0557 46.0793 27.7979 45.5472C30.1545 45.2106 34.7273 42.3064 38.2197 39.7006C41.7166 37.0922 45.7412 33.5788 46.552 31.5441C46.8817 30.7173 46.6728 30.1929 46.4376 29.8972Z" fill="#030917"/>
  </g>
  <defs>
    <clipPath id="clip0_171_9">
      <rect width="50" height="50" fill="white" transform="translate(0 0.283936)"/>
    </clipPath>
  </defs>
</svg>