<svg xmlns="http://www.w3.org/2000/svg" width="50" height="51" viewBox="0 0 50 51" fill="none">
  <g clip-path="url(#clip0_136_256)">
    <path d="M25.0382 11.2898C17.9614 11.2898 12.1797 17.0715 12.1797 24.1483C12.1797 27.8485 13.7986 31.4101 16.5275 33.8152C18.5627 35.8504 18.3777 40.1982 18.3314 40.2445C18.3314 40.4757 18.3777 40.6607 18.5627 40.8458C18.7014 40.9845 18.9327 41.077 19.1177 41.077H30.9123C31.1436 41.077 31.3286 40.9845 31.4674 40.8458C31.6061 40.707 31.6987 40.4757 31.6987 40.2445C31.6987 40.1982 31.4674 35.8504 33.5025 33.8152C33.5488 33.769 33.595 33.7227 33.6413 33.6765C36.324 31.225 37.8966 27.756 37.8966 24.1483C37.8966 17.0715 32.1149 11.2898 25.0382 11.2898ZM32.4387 32.6126C32.3925 32.6589 32.2999 32.7514 32.2999 32.7977C30.4961 34.7403 30.1723 37.9318 30.126 39.4582H19.904C19.8578 37.9318 19.534 34.6015 17.5913 32.6126C15.1399 30.485 13.7061 27.386 13.7061 24.102C13.7061 17.8578 18.7477 12.8162 24.9919 12.8162C31.2361 12.8162 36.2777 17.8578 36.2777 24.102C36.2777 27.386 34.8901 30.485 32.4387 32.6126Z" fill="#030917"/>
    <path d="M24.9919 14.5737C24.5756 14.5737 24.2056 14.9438 24.2056 15.36C24.2056 15.7763 24.5756 16.1463 24.9919 16.1463C29.6635 16.1463 33.41 19.9391 33.41 24.5645C33.41 24.9808 33.78 25.3508 34.1963 25.3508C34.6126 25.3508 34.9826 24.9808 34.9826 24.5645C35.0289 19.0603 30.5423 14.5737 24.9919 14.5737Z" fill="#030917"/>
    <path d="M30.126 41.9558H19.8577C18.7939 41.9558 17.915 42.8346 17.915 43.8985C17.915 44.9623 18.7939 45.8411 19.8577 45.8411H30.0797C31.1898 45.7948 32.0686 44.9623 32.0686 43.8985C32.0686 42.8346 31.1898 41.9558 30.126 41.9558ZM30.126 44.2222H19.8577C19.6727 44.2222 19.4877 44.0835 19.4877 43.8522C19.4877 43.6209 19.6264 43.4822 19.8577 43.4822H30.0797C30.2647 43.4822 30.4497 43.6209 30.4497 43.8522C30.4497 44.0835 30.311 44.2222 30.126 44.2222Z" fill="#030917"/>
    <path d="M28.5996 46.6274H21.3841C20.3202 46.6274 19.4414 47.5063 19.4414 48.5701C19.4414 49.6339 20.3202 50.5127 21.3841 50.5127H28.5996C29.6634 50.5127 30.5422 49.6339 30.5422 48.5701C30.5422 47.46 29.6634 46.6274 28.5996 46.6274ZM28.5996 48.8939H21.3841C21.199 48.8939 21.014 48.7551 21.014 48.5238C21.014 48.2926 21.1528 48.1538 21.3841 48.1538H28.5996C28.7846 48.1538 28.9696 48.2926 28.9696 48.5238C28.9696 48.7551 28.7846 48.8939 28.5996 48.8939Z" fill="#030917"/>
    <path d="M24.9919 7.45072C25.4544 7.45072 25.7782 7.08069 25.7782 6.66441V1.299C25.7782 0.882723 25.4082 0.512695 24.9919 0.512695C24.5756 0.512695 24.2056 0.882723 24.2056 1.299V6.66441C24.2056 7.08069 24.5756 7.45072 24.9919 7.45072Z" fill="#030917"/>
    <path d="M38.0814 4.49047C37.7114 4.21295 37.2488 4.35171 37.0176 4.67549L34.0574 9.11582C33.7798 9.48585 33.8723 9.99464 34.2424 10.2259C34.3811 10.3184 34.5199 10.3647 34.6587 10.3647C34.9362 10.3647 35.1674 10.2259 35.3062 9.99464L38.2664 5.5543C38.5439 5.23053 38.4514 4.72174 38.0814 4.49047Z" fill="#030917"/>
    <path d="M15.6022 10.1797C15.7409 10.1797 15.8797 10.1334 16.0184 10.0409C16.3885 9.80967 16.481 9.30088 16.2497 8.93085L13.382 4.44427C13.1507 4.07424 12.6419 3.98173 12.2719 4.213C11.9019 4.44427 11.8094 4.95305 12.0406 5.32308L14.9084 9.80967C15.0934 10.0872 15.3246 10.1797 15.6022 10.1797Z" fill="#030917"/>
    <path d="M10.0055 15.0826L5.33393 12.5386C4.9639 12.3536 4.45511 12.4924 4.2701 12.8624C4.03883 13.2324 4.17759 13.7412 4.59387 13.9262L9.26547 16.4702C9.40424 16.5164 9.49674 16.5627 9.6355 16.5627C9.91302 16.5627 10.1905 16.4239 10.3293 16.1464C10.5143 15.7764 10.3756 15.2676 10.0055 15.0826Z" fill="#030917"/>
    <path d="M45.7598 12.8624C45.5748 12.4924 45.066 12.3536 44.696 12.5386L39.9781 15.0826C39.6081 15.2676 39.4693 15.7764 39.6543 16.1464C39.7931 16.4239 40.0706 16.5627 40.3481 16.5627C40.4869 16.5627 40.6257 16.5164 40.7182 16.4702L45.436 13.9262C45.8061 13.7412 45.9448 13.2324 45.7598 12.8624Z" fill="#030917"/>
  </g>
  <defs>
    <clipPath id="clip0_136_256">
      <rect width="50" height="50" fill="white" transform="translate(0 0.512695)"/>
    </clipPath>
  </defs>
</svg>