<svg xmlns="http://www.w3.org/2000/svg" width="40" height="41" viewBox="0 0 40 41" fill="none">
  <g clip-path="url(#clip0_195_97)">
    <path d="M29.3634 38.5896V38.7396H29.5134H38.5547C38.7635 38.7396 38.9639 38.8225 39.1115 38.9702C39.2592 39.1179 39.3422 39.3182 39.3422 39.5271C39.3422 39.7359 39.2592 39.9362 39.1115 40.0839C38.9639 40.2316 38.7635 40.3145 38.5547 40.3145H1.44531C1.23645 40.3145 1.03615 40.2316 0.888466 40.0839C0.740781 39.9362 0.657813 39.7359 0.657813 39.5271V31.4021C0.657813 31.1932 0.740782 30.9929 0.888466 30.8452C1.03615 30.6975 1.23645 30.6146 1.44531 30.6146C1.65417 30.6146 1.85448 30.6975 2.00216 30.8452C2.14984 30.9929 2.23281 31.1932 2.23281 31.4021V35.8396V36.4205L2.51406 35.9122L9.71593 22.8957C9.76684 22.8037 9.83567 22.7228 9.91834 22.6578C10.001 22.5928 10.0959 22.5451 10.1973 22.5173C10.2987 22.4896 10.4047 22.4825 10.5089 22.4963C10.6132 22.5102 10.7136 22.5448 10.8042 22.5981L19.1405 27.5008L19.2604 27.5713L19.3397 27.4571L32.7471 8.16617L32.9108 7.93057H32.6239H28.5391C28.3302 7.93057 28.1299 7.8476 27.9822 7.69991C27.8345 7.55223 27.7516 7.35192 27.7516 7.14307C27.7516 6.93421 27.8345 6.73391 27.9822 6.58622C28.1299 6.43854 28.3302 6.35557 28.5391 6.35557H34.5272C34.736 6.35557 34.9364 6.43854 35.084 6.58622C35.2317 6.7339 35.3147 6.93421 35.3147 7.14307V13.131C35.3147 13.3399 35.2317 13.5402 35.084 13.6879C34.9364 13.8356 34.736 13.9185 34.5272 13.9185C34.3183 13.9185 34.118 13.8356 33.9703 13.6879C33.8227 13.5402 33.7397 13.3399 33.7397 13.131V9.9765V9.49785L33.4665 9.8909L29.3902 15.7561L29.3634 15.7947V15.8417V38.5896ZM2.87297 38.5169L2.7498 38.7396H3.00422H9.4675H9.6175V38.5896V26.9079V26.327L9.33625 26.8353L2.87297 38.5169ZM11.1925 38.5896V38.7396H11.3425H18.553H18.703V38.5896V29.1564V29.0706L18.629 29.0271L11.4185 24.7866L11.1925 24.6536V24.9159V38.5896ZM20.278 38.5896V38.7396H20.428H27.6384H27.7884V38.5896V18.5394V18.0607L27.5152 18.4538L20.3048 28.8283L20.278 28.8669V28.9139V38.5896Z" fill="#030917" stroke="#F7F3EC" stroke-width="0.3"/>
  </g>
  <defs>
    <clipPath id="clip0_195_97">
      <rect width="40" height="40" fill="white" transform="translate(0 0.464355)"/>
    </clipPath>
  </defs>
</svg>