<svg xmlns="http://www.w3.org/2000/svg" width="36" height="36" viewBox="0 0 36 36" fill="none">
  <g clip-path="url(#clip0_339_191)">
    <path d="M24.3216 23.042C28.046 17.1978 27.5778 17.9269 27.6852 17.7745C29.0411 15.862 29.7578 13.611 29.7578 11.2647C29.7578 5.04267 24.7087 -0.0829163 18.4785 -0.0829163C12.2686 -0.0829163 7.19922 5.03255 7.19922 11.2647C7.19922 13.6095 7.93094 15.9194 9.33135 17.8577L12.6353 23.0421C9.10282 23.5849 3.09766 25.2027 3.09766 28.7647C3.09766 30.0632 3.94518 31.9137 7.98275 33.3557C10.802 34.3626 14.5295 34.9171 18.4785 34.9171C25.863 34.9171 33.8594 32.834 33.8594 28.7647C33.8594 25.2021 27.8612 23.586 24.3216 23.042ZM11.0444 16.7297C11.0331 16.7121 11.0213 16.6949 11.009 16.6779C9.8437 15.0747 9.25 13.1748 9.25 11.2647C9.25 6.13656 13.3793 1.96786 18.4785 1.96786C23.5671 1.96786 27.707 6.1384 27.707 11.2647C27.707 13.1778 27.1245 15.0134 26.0222 16.5743C25.9235 16.7046 26.4388 15.9039 18.4785 28.3948L11.0444 16.7297ZM18.4785 32.8663C10.4125 32.8663 5.14844 30.4954 5.14844 28.7647C5.14844 27.6015 7.85328 25.6889 13.847 24.9434L17.6138 30.8539C17.802 31.1494 18.1281 31.3282 18.4784 31.3282C18.8288 31.3282 19.1549 31.1493 19.3431 30.8539L23.1098 24.9434C29.1037 25.6889 31.8086 27.6015 31.8086 28.7647C31.8086 30.4807 26.5919 32.8663 18.4785 32.8663Z" fill="#030917"/>
    <path d="M18.4785 6.13779C15.6515 6.13779 13.3516 8.43774 13.3516 11.2647C13.3516 14.0917 15.6515 16.3917 18.4785 16.3917C21.3055 16.3917 23.6055 14.0917 23.6055 11.2647C23.6055 8.43774 21.3055 6.13779 18.4785 6.13779ZM18.4785 14.3409C16.7823 14.3409 15.4023 12.9609 15.4023 11.2647C15.4023 9.56854 16.7823 8.18857 18.4785 8.18857C20.1747 8.18857 21.5547 9.56854 21.5547 11.2647C21.5547 12.9609 20.1747 14.3409 18.4785 14.3409Z" fill="#030917"/>
  </g>
  <defs>
    <clipPath id="clip0_339_191">
      <rect width="35" height="35" fill="white" transform="translate(0.925781 0.0791016)"/>
    </clipPath>
  </defs>
</svg>