<svg xmlns="http://www.w3.org/2000/svg" width="50" height="51" viewBox="0 0 50 51" fill="none">
  <path d="M49.2197 29.3809L46.675 26.8362C45.6357 25.7969 43.9455 25.7987 42.9062 26.8362L29.1649 40.5784L27.2711 47.524L26.8077 47.9874C26.4613 48.3339 26.4604 48.8928 26.8024 49.2419L26.7979 49.2598L26.8149 49.2553C26.9881 49.425 27.2131 49.5125 27.439 49.5125C27.6675 49.5125 27.8961 49.425 28.0702 49.2509L28.5345 48.7866L35.4793 46.8928L49.2206 33.1506C50.2599 32.1113 50.2599 30.4202 49.2197 29.3809ZM31.2265 41.0427L40.3722 31.8979L44.1607 35.6854L35.015 44.8311L31.2265 41.0427ZM30.4203 42.7615L33.2953 45.6365L29.3417 46.7151L30.4203 42.7615ZM47.9572 31.8881L45.4223 34.4229L41.6339 30.6354L44.1687 28.1005C44.5125 27.7567 45.0705 27.7576 45.4134 28.0996L47.9581 30.6443C48.301 30.9863 48.3009 31.5452 47.9572 31.8881Z" fill="#030917"/>
  <path d="M24.1075 11.7708C23.6146 11.7708 23.2146 12.1699 23.2146 12.6636C23.2146 13.1574 23.6146 13.5565 24.1075 13.5565H40.1792C40.6721 13.5565 41.0721 13.1574 41.0721 12.6636C41.0721 12.1699 40.6721 11.7708 40.1792 11.7708H24.1075Z" fill="#030917"/>
  <path d="M41.0721 25.1639C41.0721 24.6701 40.6721 24.271 40.1792 24.271H24.1075C23.6146 24.271 23.2146 24.6701 23.2146 25.1639C23.2146 25.6576 23.6146 26.0567 24.1075 26.0567H40.1792C40.6721 26.0567 41.0721 25.6567 41.0721 25.1639Z" fill="#030917"/>
  <path d="M18.3754 7.52152C18.0022 7.20009 17.4379 7.24205 17.1165 7.61795L11.5378 14.1252L8.12523 11.5662C7.73058 11.2716 7.17164 11.3502 6.8752 11.7448C6.57877 12.1386 6.65913 12.6984 7.05378 12.9939L11.1351 16.0556C11.2958 16.1761 11.4833 16.2342 11.6708 16.2342C11.9235 16.2342 12.1735 16.1279 12.3494 15.9217L18.4718 8.77869C18.7924 8.40546 18.7495 7.84206 18.3754 7.52152Z" fill="#030917"/>
  <path d="M18.3754 20.0218C18.0022 19.7003 17.4379 19.7423 17.1165 20.1182L11.5378 26.6255L8.12523 24.0665C7.73058 23.7709 7.17164 23.8513 6.8752 24.2451C6.57877 24.6388 6.65913 25.1986 7.05378 25.4942L11.1351 28.5558C11.2958 28.6764 11.4833 28.7344 11.6708 28.7344C11.9235 28.7344 12.1735 28.6282 12.3494 28.4219L18.4718 21.2789C18.7924 20.9057 18.7495 20.3423 18.3754 20.0218Z" fill="#030917"/>
  <path d="M17.1156 33.5114L11.5369 40.0177L8.12523 37.4587C7.73058 37.1632 7.17164 37.2436 6.8752 37.6373C6.57877 38.0311 6.65913 38.5909 7.05378 38.8865L11.1351 41.9481C11.2958 42.0686 11.4833 42.1267 11.6708 42.1267C11.9235 42.1267 12.1735 42.0204 12.3494 41.8142L18.4718 34.6721C18.7924 34.298 18.7495 33.7346 18.3754 33.414C18.0013 33.0935 17.437 33.1363 17.1156 33.5114Z" fill="#030917"/>
  <path d="M22.3218 47.4857H10.8716C5.86171 47.4857 1.78575 43.4097 1.78575 38.3998V11.927C1.78575 6.91713 5.86171 2.84206 10.8716 2.84206H37.3435C42.3534 2.84206 46.4294 6.91713 46.4294 11.927V22.4844C46.4294 22.9781 46.8294 23.3772 47.3223 23.3772C47.8151 23.3772 48.2151 22.9781 48.2151 22.4844V11.927C48.2151 5.93229 43.3383 1.05542 37.3435 1.05542H10.8716C4.87687 1.05631 0 5.93229 0 11.927V38.3989C0 44.3937 4.87687 49.2706 10.8716 49.2706H22.3218C22.8147 49.2706 23.2147 48.8714 23.2147 48.3777C23.2147 47.8839 22.8147 47.4857 22.3218 47.4857Z" fill="#030917"/>
</svg>