<svg width="32" height="33" viewBox="0 0 32 33" fill="none" xmlns="http://www.w3.org/2000/svg">
<path d="M4.88761 15.4346C4.33533 15.4362 3.79478 15.594 3.32849 15.89C2.8622 16.1859 2.48922 16.6079 2.25271 17.1069C2.01621 17.606 1.92583 18.1618 1.99205 18.7101C2.05826 19.2584 2.27836 19.7768 2.62687 20.2052L10.0564 29.3064C10.3213 29.6353 10.6609 29.8963 11.0469 30.0676C11.4329 30.239 11.8542 30.3157 12.2759 30.2915C13.1776 30.2431 13.9918 29.7607 14.5109 28.9675L29.9439 4.11265C29.9464 4.10852 29.9491 4.1044 29.9518 4.10034C30.0966 3.878 30.0496 3.43739 29.7508 3.16059C29.6686 3.08457 29.5718 3.02617 29.4663 2.98898C29.3608 2.9518 29.2488 2.93661 29.1371 2.94435C29.0255 2.95209 28.9167 2.9826 28.8173 3.034C28.7179 3.08541 28.6301 3.15661 28.5592 3.24323C28.5537 3.25004 28.548 3.25675 28.5421 3.26335L12.9777 20.8488C12.9185 20.9158 12.8465 20.9702 12.7661 21.0091C12.6856 21.048 12.5982 21.0705 12.509 21.0753C12.4198 21.0802 12.3305 21.0672 12.2463 21.0372C12.1621 21.0073 12.0847 20.9608 12.0186 20.9007L6.85309 16.2C6.3166 15.7082 5.6154 15.4352 4.88761 15.4346Z" fill="#030917"/>
</svg>
