<svg xmlns="http://www.w3.org/2000/svg" width="36" height="36" viewBox="0 0 36 36" fill="none">
  <g clip-path="url(#clip0_339_201)">
    <path d="M27.8543 21.7604C27.1378 21.0143 26.2735 20.6154 25.3575 20.6154C24.4489 20.6154 23.5773 21.0069 22.8312 21.753L20.4969 24.0799C20.3048 23.9765 20.1128 23.8804 19.9281 23.7844C19.6622 23.6514 19.411 23.5258 19.1968 23.3929C17.0102 22.0041 15.0231 20.1943 13.1173 17.8526C12.1939 16.6855 11.5734 15.703 11.1228 14.7058C11.7285 14.1518 12.2899 13.5756 12.8366 13.0215C13.0434 12.8147 13.2502 12.6005 13.4571 12.3937C15.0083 10.8424 15.0083 8.83312 13.4571 7.28186L11.4404 5.26521C11.2114 5.03621 10.9751 4.79983 10.7534 4.56344C10.3102 4.10545 9.84484 3.63268 9.36469 3.18946C8.64815 2.48031 7.79126 2.10358 6.89005 2.10358C5.98884 2.10358 5.11717 2.48031 4.37847 3.18946C4.37109 3.19685 4.37109 3.19685 4.3637 3.20424L1.85212 5.73798C0.906588 6.68351 0.367338 7.83588 0.249146 9.17293C0.0718586 11.3299 0.70714 13.3392 1.19468 14.6541C2.39137 17.8822 4.17902 20.8739 6.84573 24.0799C10.0812 27.9433 13.9742 30.9941 18.4211 33.1437C20.1201 33.9489 22.388 34.9018 24.9217 35.0643C25.0768 35.0717 25.2393 35.0791 25.3871 35.0791C27.0935 35.0791 28.5265 34.466 29.6494 33.2471C29.6567 33.2324 29.6715 33.225 29.6789 33.2102C30.063 32.7448 30.5063 32.3238 30.9716 31.8731C31.2893 31.5703 31.6143 31.2526 31.9319 30.9202C32.6633 30.1594 33.0474 29.2729 33.0474 28.3643C33.0474 27.4483 32.6559 26.5693 31.9098 25.8306L27.8543 21.7604ZM30.4989 29.5389C30.4915 29.5389 30.4915 29.5462 30.4989 29.5389C30.2108 29.8491 29.9153 30.1298 29.5977 30.4401C29.1175 30.8981 28.63 31.3782 28.172 31.9175C27.4259 32.7153 26.5468 33.092 25.3945 33.092C25.2837 33.092 25.1655 33.092 25.0547 33.0846C22.8607 32.9443 20.8219 32.0874 19.2928 31.3561C15.1118 29.332 11.4404 26.4585 8.38961 22.8167C5.87065 19.7806 4.18641 16.9736 3.07098 13.9597C2.38399 12.1203 2.13283 10.6873 2.24363 9.33544C2.3175 8.47116 2.64992 7.75462 3.26304 7.1415L5.782 4.62254C6.14396 4.28274 6.52809 4.09806 6.90482 4.09806C7.3702 4.09806 7.74694 4.37877 7.98332 4.61515C7.99071 4.62254 7.9981 4.62993 8.00548 4.63731C8.45609 5.05837 8.88454 5.49421 9.33514 5.95959C9.56414 6.19597 9.80052 6.43235 10.0369 6.67612L12.0536 8.69277C12.8366 9.47579 12.8366 10.1997 12.0536 10.9827C11.8393 11.197 11.6325 11.4112 11.4183 11.618C10.7978 12.2533 10.2068 12.8443 9.56414 13.4204C9.54937 13.4352 9.53459 13.4426 9.5272 13.4574C8.89192 14.0927 9.01011 14.7132 9.14308 15.1342C9.15047 15.1564 9.15786 15.1785 9.16524 15.2007C9.68972 16.4713 10.4284 17.668 11.5512 19.0937L11.5586 19.101C13.5974 21.6126 15.747 23.5702 18.1183 25.0697C18.4211 25.2618 18.7314 25.4169 19.0269 25.5647C19.2928 25.6976 19.544 25.8232 19.7582 25.9562C19.7877 25.9709 19.8173 25.9931 19.8468 26.0079C20.098 26.1335 20.3344 26.1926 20.5781 26.1926C21.1913 26.1926 21.5754 25.8084 21.701 25.6828L24.2273 23.1565C24.4785 22.9053 24.8774 22.6025 25.3427 22.6025C25.8007 22.6025 26.1775 22.8906 26.4065 23.1417C26.4139 23.1491 26.4139 23.1491 26.4212 23.1565L30.4915 27.2267C31.2523 27.9802 31.2523 28.7558 30.4989 29.5389Z" fill="#030917"/>
    <path d="M19.108 8.40468C21.0434 8.72971 22.8015 9.64569 24.205 11.0492C25.6085 12.4528 26.5171 14.2109 26.8495 16.1462C26.9308 16.6338 27.3518 16.9736 27.832 16.9736C27.8911 16.9736 27.9428 16.9662 28.0019 16.9588C28.5485 16.8702 28.9105 16.3531 28.8219 15.8064C28.423 13.4648 27.3149 11.3299 25.6233 9.63831C23.9317 7.94669 21.7968 6.83864 19.4552 6.43974C18.9085 6.3511 18.3988 6.71306 18.3028 7.25231C18.2068 7.79156 18.5613 8.31604 19.108 8.40468Z" fill="#030917"/>
    <path d="M35.1507 15.5183C34.4933 11.6623 32.6761 8.15352 29.8838 5.36124C27.0915 2.56896 23.5827 0.751762 19.7267 0.0943203C19.1874 -0.0017105 18.6777 0.367639 18.5817 0.906889C18.4931 1.45353 18.855 1.96323 19.4017 2.05926C22.844 2.64283 25.9835 4.27535 28.4803 6.76477C30.9771 9.26157 32.6022 12.401 33.1858 15.8434C33.267 16.3309 33.6881 16.6707 34.1682 16.6707C34.2273 16.6707 34.2791 16.6633 34.3381 16.6559C34.8774 16.5747 35.2467 16.0576 35.1507 15.5183Z" fill="#030917"/>
  </g>
  <defs>
    <clipPath id="clip0_339_201">
      <rect width="35" height="35" fill="white" transform="translate(0.21875 0.0791016)"/>
    </clipPath>
  </defs>
</svg>