<svg xmlns="http://www.w3.org/2000/svg" width="40" height="41" viewBox="0 0 40 41" fill="none">
  <path d="M5.58888 14.4968C5.4885 14.4968 5.39009 14.4688 5.3047 14.416C5.21931 14.3632 5.1503 14.2877 5.10541 14.1979C5.06051 14.1082 5.04151 14.0076 5.05052 13.9077C5.05954 13.8077 5.09622 13.7122 5.15645 13.6319C5.49584 13.1875 5.86344 12.7654 6.25699 12.3681C6.35896 12.2739 6.49328 12.2225 6.63209 12.2247C6.7709 12.2268 6.90357 12.2823 7.00261 12.3796C7.10164 12.4769 7.15944 12.6085 7.16403 12.7473C7.16862 12.886 7.11965 13.0212 7.02726 13.1249C6.66667 13.4885 6.32993 13.8751 6.01915 14.2822C5.96885 14.3487 5.90384 14.4027 5.82919 14.4399C5.75454 14.4772 5.67229 14.4966 5.58888 14.4968Z" fill="#030917"/>
  <path d="M16.773 37.4321C13.012 37.4314 9.3933 35.9937 6.65725 33.4131C3.9212 30.8325 2.27454 27.304 2.0541 23.5494C2.05005 23.4784 2.06003 23.4073 2.08346 23.3402C2.10688 23.2731 2.1433 23.2112 2.19063 23.1582C2.23797 23.1051 2.29529 23.0619 2.35932 23.031C2.42335 23.0001 2.49285 22.9821 2.56383 22.9781C2.63481 22.974 2.7059 22.984 2.77303 23.0074C2.84016 23.0308 2.90202 23.0673 2.95507 23.1146C3.00813 23.1619 3.05134 23.2192 3.08224 23.2833C3.11315 23.3473 3.13114 23.4168 3.13518 23.4878C3.26769 25.7338 3.95262 27.9124 5.12919 29.8301C6.30575 31.7479 7.93757 33.3456 9.8798 34.4813C11.822 35.617 14.0146 36.2557 16.2629 36.3407C18.5112 36.4256 20.7458 35.9542 22.7682 34.9683C24.706 34.0219 26.3922 32.63 27.6887 30.9066C28.9852 29.1833 29.8552 27.1774 30.2275 25.0532C30.5999 22.9289 30.4639 20.7467 29.8308 18.6851C29.1976 16.6236 28.0853 14.7412 26.5849 13.1921C24.4699 11.0076 21.6859 9.5919 18.6747 9.16974C15.6635 8.74758 12.5975 9.34312 9.96329 10.8618C9.88123 10.9096 9.78797 10.9348 9.69302 10.9348C9.56902 10.936 9.44837 10.8945 9.35131 10.8174C9.25426 10.7402 9.18669 10.632 9.15995 10.5109C9.13321 10.3898 9.14892 10.2632 9.20445 10.1523C9.25997 10.0414 9.35193 9.95297 9.46491 9.90184C11.4253 8.78071 13.6171 8.12511 15.8711 7.98565C18.1251 7.84619 20.381 8.2266 22.4646 9.09752C24.5482 9.96844 26.4038 11.3066 27.8881 13.0086C29.3724 14.7106 30.4457 16.7309 31.0251 18.9137C31.6046 21.0964 31.6746 23.3831 31.2299 25.5971C30.7851 27.8112 29.8375 29.8935 28.4601 31.6831C27.0828 33.4728 25.3126 34.922 23.2861 35.9188C21.2597 36.9156 19.0313 37.4334 16.773 37.4321Z" fill="#030917"/>
  <path d="M3.09267 19.4426C3.04632 19.4427 3.00015 19.4367 2.95538 19.4247C2.88669 19.4068 2.82222 19.3754 2.76566 19.3325C2.70909 19.2896 2.66152 19.236 2.62568 19.1747C2.58984 19.1134 2.56643 19.0457 2.55678 18.9753C2.54712 18.905 2.55142 18.8334 2.56943 18.7647C2.72253 18.1906 2.91451 17.6275 3.14403 17.0793C3.19879 16.9468 3.30396 16.8415 3.4364 16.7865C3.56884 16.7315 3.7177 16.7313 3.85024 16.7861C3.98278 16.8409 4.08813 16.946 4.14312 17.0785C4.19812 17.2109 4.19825 17.3598 4.14348 17.4923C3.93246 17.9952 3.75602 18.5119 3.61538 19.0388C3.58514 19.1544 3.51744 19.2568 3.42287 19.3298C3.3283 19.4029 3.21218 19.4425 3.09267 19.4426Z" fill="#030917"/>
  <path d="M16.7736 32.5225C14.8296 32.5227 12.9292 31.9465 11.3127 30.8666C9.69626 29.7867 8.43633 28.2517 7.69227 26.4558C6.94821 24.6598 6.75345 22.6835 7.13261 20.7769C7.51178 18.8702 8.44783 17.1188 9.82241 15.7442C11.197 14.3695 12.9483 13.4334 14.855 13.0541C16.7616 12.6748 18.7379 12.8695 20.5339 13.6135C22.3299 14.3574 23.8649 15.6173 24.9449 17.2337C26.0249 18.8501 26.6013 20.7504 26.6012 22.6944C26.5986 25.3001 25.5624 27.7984 23.7199 29.6409C21.8775 31.4835 19.3793 32.5198 16.7736 32.5225ZM16.7736 13.9469C15.0434 13.9466 13.3521 14.4595 11.9134 15.4206C10.4747 16.3816 9.35336 17.7477 8.69111 19.3461C8.02886 20.9445 7.85548 22.7034 8.19288 24.4003C8.53029 26.0973 9.36333 27.656 10.5867 28.8795C11.81 30.103 13.3686 30.9362 15.0655 31.2738C16.7624 31.6114 18.5213 31.4383 20.1198 30.7762C21.7183 30.1142 23.0845 28.993 24.0458 27.5544C25.007 26.1159 25.5201 24.4246 25.5201 22.6944C25.5176 20.3754 24.5954 18.152 22.9557 16.512C21.3159 14.8721 19.0926 13.9496 16.7736 13.9469Z" fill="#030917"/>
  <path d="M16.7734 27.6118C15.8005 27.6118 14.8495 27.3233 14.0406 26.7828C13.2317 26.2423 12.6012 25.4741 12.2289 24.5752C11.8566 23.6764 11.7592 22.6874 11.949 21.7332C12.1388 20.779 12.6073 19.9026 13.2952 19.2146C13.9831 18.5267 14.8596 18.0582 15.8138 17.8684C16.768 17.6786 17.757 17.7761 18.6558 18.1484C19.5546 18.5207 20.3228 19.1511 20.8633 19.96C21.4038 20.769 21.6923 21.72 21.6923 22.6928C21.6912 23.9971 21.1726 25.2476 20.2504 26.1698C19.3281 27.092 18.0776 27.6106 16.7734 27.6118ZM16.7734 18.8577C16.0144 18.8577 15.2724 19.0828 14.6412 19.5045C14.0101 19.9262 13.5182 20.5256 13.2277 21.2269C12.9372 21.9281 12.8612 22.6998 13.0093 23.4443C13.1574 24.1887 13.5229 24.8726 14.0597 25.4093C14.5964 25.946 15.2802 26.3116 16.0247 26.4596C16.7692 26.6077 17.5408 26.5317 18.2421 26.2413C18.9434 25.9508 19.5428 25.4589 19.9645 24.8277C20.3862 24.1966 20.6113 23.4546 20.6113 22.6955C20.6104 21.678 20.2058 20.7023 19.4862 19.9827C18.7667 19.2632 17.791 18.8586 16.7734 18.8577Z" fill="#030917"/>
  <path d="M17.4326 22.6946C17.3252 22.6946 17.2203 22.6626 17.1312 22.6027C17.0421 22.5429 16.9728 22.4578 16.9322 22.3584C16.8916 22.2591 16.8815 22.1498 16.9033 22.0447C16.925 21.9396 16.9775 21.8433 17.0542 21.7681L31.6715 7.45785C31.7219 7.40698 31.7819 7.36663 31.8481 7.33917C31.9143 7.3117 31.9852 7.29766 32.0569 7.29785C32.1285 7.29805 32.1994 7.31249 32.2654 7.34032C32.3314 7.36815 32.3912 7.40882 32.4413 7.45998C32.4915 7.51113 32.531 7.57174 32.5575 7.63828C32.584 7.70483 32.597 7.77598 32.5958 7.8476C32.5946 7.91923 32.5792 7.98989 32.5504 8.0555C32.5216 8.1211 32.4801 8.18033 32.4282 8.22974L17.8109 22.54C17.7099 22.6391 17.5741 22.6946 17.4326 22.6946Z" fill="#030917"/>
  <path d="M34.1964 10.5725H34.1661L30.0164 10.3396C29.8854 10.3322 29.7616 10.2775 29.668 10.1856C29.5745 10.0937 29.5175 9.97089 29.5077 9.8401L29.1764 5.43307C29.1704 5.35501 29.1815 5.27659 29.2089 5.20323C29.2362 5.12987 29.2792 5.06333 29.3347 5.00821L32.6618 1.70226C32.7313 1.6333 32.8182 1.5845 32.9133 1.56109C33.0083 1.53768 33.108 1.54053 33.2015 1.56933C33.2951 1.59814 33.3791 1.65182 33.4446 1.72464C33.51 1.79746 33.5544 1.88669 33.5731 1.9828L34.2758 5.60767L37.5326 6.28334C37.6281 6.30334 37.7164 6.34881 37.7881 6.41493C37.8598 6.48104 37.9124 6.56534 37.9401 6.65889C37.9678 6.75243 37.9696 6.85173 37.9455 6.94625C37.9213 7.04077 37.872 7.127 37.8028 7.19577L34.578 10.4104C34.5282 10.4612 34.4688 10.5017 34.4033 10.5295C34.3379 10.5573 34.2675 10.5719 34.1964 10.5725ZM30.5504 9.2855L33.9861 9.47848L36.3326 7.14064L33.7061 6.59577C33.6018 6.5741 33.5063 6.5221 33.4315 6.44633C33.3567 6.37055 33.3059 6.27436 33.2856 6.16983L32.7028 3.1828L30.2704 5.59631L30.5504 9.2855Z" fill="#030917"/>
  <path d="M25.4131 39.3833C25.3267 39.3834 25.2415 39.3628 25.1646 39.3232C25.0878 39.2836 25.0216 39.2262 24.9715 39.1557L22.5672 35.7665C22.5241 35.7088 22.493 35.643 22.4758 35.5731C22.4585 35.5031 22.4553 35.4305 22.4665 35.3593C22.4777 35.2881 22.5031 35.2199 22.541 35.1587C22.5789 35.0975 22.6287 35.0444 22.6874 35.0027C22.7462 34.961 22.8126 34.9314 22.883 34.9158C22.9533 34.9001 23.026 34.8986 23.0969 34.9115C23.1678 34.9243 23.2354 34.9512 23.2957 34.9906C23.3561 35.0299 23.4079 35.0809 23.4483 35.1406L25.5612 38.1179L27.8391 36.7233L25.778 33.5811C25.739 33.5217 25.712 33.4553 25.6987 33.3855C25.6853 33.3157 25.6858 33.2439 25.7002 33.1743C25.7146 33.1047 25.7425 33.0386 25.7825 32.9798C25.8224 32.9211 25.8735 32.8707 25.9329 32.8317C25.9922 32.7926 26.0587 32.7657 26.1285 32.7523C26.1983 32.739 26.2701 32.7395 26.3397 32.7539C26.4093 32.7683 26.4753 32.7962 26.5341 32.8361C26.5929 32.876 26.6433 32.9271 26.6823 32.9865L29.0488 36.5946C29.0884 36.6551 29.1155 36.723 29.1284 36.7941C29.1413 36.8653 29.1398 36.9383 29.1239 37.0089C29.1081 37.0795 29.0783 37.1461 29.0362 37.205C28.9942 37.2638 28.9407 37.3136 28.8791 37.3514L25.6948 39.3011C25.6103 39.3539 25.5128 39.3824 25.4131 39.3833Z" fill="#030917"/>
  <path d="M8.13411 39.3831C8.03453 39.3831 7.93689 39.3556 7.85195 39.3037L4.66762 37.3539C4.60597 37.3161 4.55254 37.2663 4.51048 37.2075C4.46842 37.1487 4.4386 37.082 4.42277 37.0114C4.40694 36.9409 4.40544 36.8679 4.41834 36.7967C4.43125 36.7255 4.4583 36.6577 4.49789 36.5972L6.86492 32.988C6.94377 32.8681 7.06703 32.7844 7.20758 32.7553C7.34813 32.7263 7.49446 32.7543 7.61438 32.8331C7.7343 32.912 7.81799 33.0352 7.84703 33.1758C7.87607 33.3163 7.84809 33.4627 7.76924 33.5826L5.70816 36.7231L7.986 38.1177L10.0984 35.1404C10.1395 35.0825 10.1916 35.0333 10.2518 34.9956C10.3119 34.9578 10.3789 34.9323 10.4488 34.9204C10.5188 34.9085 10.5905 34.9105 10.6597 34.9264C10.7289 34.9422 10.7943 34.9715 10.8522 35.0126C10.9101 35.0537 10.9593 35.1058 10.9971 35.1659C11.0348 35.226 11.0604 35.293 11.0723 35.363C11.0841 35.433 11.0821 35.5046 11.0663 35.5739C11.0505 35.6431 11.0212 35.7085 10.9801 35.7664L8.57519 39.1556C8.52519 39.226 8.45905 39.2834 8.38231 39.323C8.30557 39.3626 8.22046 39.3832 8.13411 39.3831Z" fill="#030917"/>
</svg>