<svg xmlns="http://www.w3.org/2000/svg" width="50" height="50" viewBox="0 0 50 50" fill="none">
  <g clip-path="url(#clip0_632_1526)">
    <path d="M25 50C9.91562 50 4.76563 30.0781 4.71094 29.8773C4.69538 29.8153 4.68751 29.7515 4.6875 29.6875V8.59375C4.6875 8.38655 4.76981 8.18784 4.91632 8.04132C5.06284 7.89481 5.26155 7.8125 5.46875 7.8125C12.5207 7.78973 19.2998 5.0849 24.4305 0.246875C24.5035 0.168994 24.5917 0.106906 24.6897 0.0644455C24.7876 0.0219847 24.8932 5.15535e-05 25 8.15316e-08C25.1067 -4.86653e-05 25.2123 0.021762 25.3102 0.064087C25.4082 0.106412 25.4964 0.168354 25.5695 0.246094C30.705 5.07675 37.4809 7.78062 44.5312 7.8125C44.7385 7.8125 44.9372 7.89481 45.0837 8.04132C45.2302 8.18784 45.3125 8.38655 45.3125 8.59375V29.6875C45.3125 29.7515 45.3046 29.8153 45.2891 29.8773C45.2383 30.0781 40.0844 50 25 50ZM6.25 29.5859C6.63047 30.993 11.6297 48.4375 25 48.4375C38.3859 48.4375 43.3711 30.9937 43.75 29.5867V9.36484C36.8083 9.1766 30.1609 6.52121 25 1.875C19.8391 6.52121 13.1917 9.1766 6.25 9.36484V29.5859Z" fill="#030917"/>
    <path d="M25 45.3125C14.8391 45.3125 10.2297 31.8352 9.40859 29.1336C9.38652 29.0599 9.37521 28.9833 9.375 28.9063V13.2813C9.37495 13.0934 9.44261 12.9118 9.56557 12.7697C9.68854 12.6277 9.85858 12.5347 10.0445 12.5079C15.3031 11.6844 20.2803 9.58698 24.5422 6.39848C24.6755 6.30196 24.8358 6.25 25.0004 6.25C25.165 6.25 25.3253 6.30196 25.4586 6.39848C29.7198 9.58761 34.697 11.6851 39.9555 12.5079C40.1414 12.5347 40.3115 12.6277 40.4344 12.7697C40.5574 12.9118 40.6251 13.0934 40.625 13.2813V28.9063C40.6247 28.9822 40.6136 29.0577 40.5922 29.1305C39.7828 31.8329 35.2266 45.3125 25 45.3125ZM10.9375 28.7891C11.7875 31.5414 16.0672 43.75 25 43.75C33.9953 43.75 38.2258 31.5391 39.0625 28.7907V13.9469C33.9856 13.0468 29.1781 11.0098 25 7.98832C20.8218 11.0095 16.0143 13.0465 10.9375 13.9469V28.7891Z" fill="#030917"/>
    <path d="M17.1875 30.4688C16.9803 30.4688 16.7816 30.3864 16.6351 30.2399C16.4886 30.0934 16.4062 29.8947 16.4062 29.6875V20.3125C16.4062 20.1053 16.4886 19.9066 16.6351 19.7601C16.7816 19.6136 16.9803 19.5312 17.1875 19.5312C17.3947 19.5312 17.5934 19.6136 17.7399 19.7601C17.8864 19.9066 17.9688 20.1053 17.9688 20.3125V29.6875C17.9688 29.8947 17.8864 30.0934 17.7399 30.2399C17.5934 30.3864 17.3947 30.4688 17.1875 30.4688Z" fill="#030917"/>
    <path d="M20.3125 21.0938H14.0625C13.8553 21.0938 13.6566 21.0114 13.5101 20.8649C13.3636 20.7184 13.2812 20.5197 13.2812 20.3125C13.2812 20.1053 13.3636 19.9066 13.5101 19.7601C13.6566 19.6136 13.8553 19.5312 14.0625 19.5312H20.3125C20.5197 19.5312 20.7184 19.6136 20.8649 19.7601C21.0114 19.9066 21.0938 20.1053 21.0938 20.3125C21.0938 20.5197 21.0114 20.7184 20.8649 20.8649C20.7184 21.0114 20.5197 21.0938 20.3125 21.0938Z" fill="#030917"/>
    <path d="M21.8752 30.4688C21.8112 30.469 21.7474 30.4611 21.6854 30.4453C21.5858 30.4205 21.4921 30.3762 21.4096 30.3152C21.3271 30.2541 21.2575 30.1773 21.2046 30.0893C21.1518 30.0013 21.1169 29.9038 21.1018 29.8023C21.0867 29.7007 21.0917 29.5972 21.1166 29.4977L23.4604 20.1227C23.5027 19.9536 23.6004 19.8035 23.7379 19.6964C23.8753 19.5892 24.0447 19.5311 24.219 19.5313H25.0002C25.2074 19.5313 25.4061 19.6136 25.5527 19.7601C25.6992 19.9066 25.7815 20.1053 25.7815 20.3125C25.7815 20.5197 25.6992 20.7184 25.5527 20.8649C25.4061 21.0114 25.2074 21.0938 25.0002 21.0938H24.8291L22.633 29.8773C22.5907 30.0463 22.4932 30.1962 22.3559 30.3034C22.2186 30.4105 22.0494 30.4687 21.8752 30.4688Z" fill="#030917"/>
    <path d="M31.2501 30.4688C31.117 30.4688 30.9861 30.4347 30.8698 30.3698C30.7536 30.305 30.6558 30.2115 30.5859 30.0982C30.5159 29.985 30.476 29.8557 30.47 29.7227C30.464 29.5898 30.4921 29.4574 30.5516 29.3384L35.2391 19.9634C35.3318 19.7779 35.4942 19.6369 35.6909 19.5712C35.8875 19.5056 36.1021 19.5207 36.2876 19.6134C36.473 19.706 36.6141 19.8685 36.6797 20.0651C36.7453 20.2617 36.7302 20.4764 36.6376 20.6618L31.9501 30.0368C31.8851 30.1668 31.7852 30.2761 31.6615 30.3524C31.5379 30.4287 31.3954 30.469 31.2501 30.4688Z" fill="#030917"/>
    <path d="M35.9373 30.4688C35.7915 30.4696 35.6483 30.4296 35.5241 30.3532C35.3998 30.2769 35.2994 30.1673 35.2342 30.0368L30.5467 20.6618C30.4541 20.4764 30.4389 20.2617 30.5046 20.0651C30.5702 19.8685 30.7113 19.706 30.8967 19.6134C31.0822 19.5207 31.2968 19.5056 31.4934 19.5712C31.69 19.6369 31.8525 19.7779 31.9452 19.9634L36.6327 29.3384C36.692 29.4572 36.7201 29.5892 36.7143 29.722C36.7085 29.8547 36.6689 29.9837 36.5993 30.0969C36.5297 30.2101 36.4323 30.3036 36.3165 30.3687C36.2007 30.4338 36.0702 30.4682 35.9373 30.4688Z" fill="#030917"/>
    <path d="M28.125 30.4688C27.951 30.4686 27.782 30.4103 27.6448 30.3032C27.5077 30.196 27.4103 30.0462 27.368 29.8773L25.1711 21.0938H25C24.7928 21.0938 24.5941 21.0114 24.4476 20.8649C24.3011 20.7184 24.2188 20.5197 24.2188 20.3125C24.2188 20.1053 24.3011 19.9066 24.4476 19.7601C24.5941 19.6136 24.7928 19.5312 25 19.5312H25.7812C25.9554 19.5313 26.1246 19.5895 26.2619 19.6966C26.3992 19.8038 26.4967 19.9537 26.5391 20.1227L28.8828 29.4977C28.9077 29.5972 28.9128 29.7007 28.8977 29.8023C28.8826 29.9038 28.8476 30.0013 28.7948 30.0893C28.742 30.1773 28.6723 30.2541 28.5899 30.3152C28.5074 30.3762 28.4136 30.4205 28.3141 30.4453C28.2523 30.4611 28.1888 30.4689 28.125 30.4688Z" fill="#030917"/>
    <path d="M26.5625 25.7812H23.4375C23.2303 25.7812 23.0316 25.6989 22.8851 25.5524C22.7386 25.4059 22.6562 25.2072 22.6562 25C22.6562 24.7928 22.7386 24.5941 22.8851 24.4476C23.0316 24.3011 23.2303 24.2188 23.4375 24.2188H26.5625C26.7697 24.2188 26.9684 24.3011 27.1149 24.4476C27.2614 24.5941 27.3438 24.7928 27.3438 25C27.3438 25.2072 27.2614 25.4059 27.1149 25.5524C26.9684 25.6989 26.7697 25.7812 26.5625 25.7812Z" fill="#030917"/>
  </g>
  <defs>
    <clipPath id="clip0_632_1526">
      <rect width="50" height="50" fill="white"/>
    </clipPath>
  </defs>
</svg>