<svg width="132" height="35" viewBox="0 0 132 35" fill="none" xmlns="http://www.w3.org/2000/svg">
<path d="M46.0705 11.237V17.23H53.3895V19.687H46.0705V27.5H43.0155V8.78H54.6895V11.237H46.0705ZM60.0579 14.24V27.5H57.2629V14.24H60.0579ZM60.5259 10.236C60.5259 10.4873 60.4739 10.7257 60.3699 10.951C60.2745 11.1763 60.1402 11.3757 59.9669 11.549C59.7935 11.7137 59.5899 11.848 59.3559 11.952C59.1305 12.0473 58.8879 12.095 58.6279 12.095C58.3765 12.095 58.1382 12.0473 57.9129 11.952C57.6962 11.848 57.5055 11.7137 57.3409 11.549C57.1762 11.3757 57.0419 11.1763 56.9379 10.951C56.8425 10.7257 56.7949 10.4873 56.7949 10.236C56.7949 9.976 56.8425 9.73333 56.9379 9.508C57.0419 9.28267 57.1762 9.08767 57.3409 8.923C57.5055 8.74967 57.6962 8.61533 57.9129 8.52C58.1382 8.416 58.3765 8.364 58.6279 8.364C58.8879 8.364 59.1305 8.416 59.3559 8.52C59.5899 8.61533 59.7935 8.74967 59.9669 8.923C60.1402 9.08767 60.2745 9.28267 60.3699 9.508C60.4739 9.73333 60.5259 9.976 60.5259 10.236ZM66.1827 15.995C66.4687 15.7003 66.7634 15.436 67.0667 15.202C67.3787 14.9593 67.708 14.7513 68.0547 14.578C68.4014 14.4047 68.7697 14.2703 69.1597 14.175C69.5497 14.0797 69.9744 14.032 70.4337 14.032C71.1617 14.032 71.7987 14.1533 72.3447 14.396C72.8994 14.6387 73.363 14.981 73.7357 15.423C74.117 15.865 74.403 16.398 74.5937 17.022C74.7844 17.6373 74.8797 18.3177 74.8797 19.063V27.5H72.0977V19.063C72.0977 18.1703 71.8897 17.477 71.4737 16.983C71.0664 16.489 70.4424 16.242 69.6017 16.242C68.9777 16.242 68.397 16.385 67.8597 16.671C67.331 16.957 66.8327 17.347 66.3647 17.841V27.5H63.5697V14.24H65.2597C65.641 14.24 65.8837 14.4177 65.9877 14.773L66.1827 15.995ZM82.8759 20.753C83.7426 20.753 84.3926 20.532 84.8259 20.09C85.2593 19.648 85.4759 19.0717 85.4759 18.361C85.4759 17.633 85.2593 17.0567 84.8259 16.632C84.3926 16.2073 83.7426 15.995 82.8759 15.995C82.0179 15.995 81.3679 16.2073 80.9259 16.632C80.4926 17.0567 80.2759 17.633 80.2759 18.361C80.2759 18.7077 80.3323 19.0283 80.4449 19.323C80.5576 19.6177 80.7223 19.8733 80.9389 20.09C81.1556 20.298 81.4243 20.4627 81.7449 20.584C82.0743 20.6967 82.4513 20.753 82.8759 20.753ZM86.7629 28.15C86.7629 27.8553 86.6763 27.6213 86.5029 27.448C86.3383 27.266 86.1129 27.1273 85.8269 27.032C85.5409 26.928 85.2073 26.8543 84.8259 26.811C84.4446 26.759 84.0373 26.7243 83.6039 26.707C83.1793 26.681 82.7416 26.6593 82.2909 26.642C81.8489 26.616 81.4199 26.5727 81.0039 26.512C80.5879 26.7287 80.2456 26.9887 79.9769 27.292C79.7169 27.5953 79.5869 27.9463 79.5869 28.345C79.5869 28.605 79.6519 28.8477 79.7819 29.073C79.9206 29.2983 80.1286 29.4933 80.4059 29.658C80.6919 29.8227 81.0516 29.9527 81.4849 30.048C81.9269 30.1433 82.4556 30.191 83.0709 30.191C84.3016 30.191 85.2246 30.0003 85.8399 29.619C86.4553 29.2377 86.7629 28.748 86.7629 28.15ZM89.5709 14.721V15.761C89.5709 16.1077 89.3629 16.32 88.9469 16.398L87.6209 16.619C87.8463 17.1217 87.9589 17.6807 87.9589 18.296C87.9589 18.946 87.8289 19.5353 87.5689 20.064C87.3176 20.5927 86.9666 21.0433 86.5159 21.416C86.0653 21.7887 85.5279 22.0747 84.9039 22.274C84.2799 22.4733 83.6039 22.573 82.8759 22.573C82.5986 22.573 82.3256 22.56 82.0569 22.534C81.7969 22.4993 81.5413 22.456 81.2899 22.404C81.0386 22.5513 80.8523 22.7073 80.7309 22.872C80.6096 23.0367 80.5489 23.2057 80.5489 23.379C80.5489 23.665 80.6746 23.8773 80.9259 24.016C81.1773 24.1547 81.5066 24.2543 81.9139 24.315C82.3299 24.3757 82.8023 24.4147 83.3309 24.432C83.8596 24.4493 84.3969 24.4797 84.9429 24.523C85.4889 24.5663 86.0263 24.64 86.5549 24.744C87.0836 24.8393 87.5516 25.004 87.9589 25.238C88.3749 25.4633 88.7086 25.771 88.9599 26.161C89.2113 26.551 89.3369 27.058 89.3369 27.682C89.3369 28.254 89.1939 28.813 88.9079 29.359C88.6219 29.905 88.2059 30.3903 87.6599 30.815C87.1226 31.2397 86.4639 31.5777 85.6839 31.829C84.9039 32.089 84.0156 32.219 83.0189 32.219C82.0309 32.219 81.1686 32.1237 80.4319 31.933C79.7039 31.7423 79.0929 31.4823 78.5989 31.153C78.1136 30.8323 77.7496 30.4597 77.5069 30.035C77.2729 29.6103 77.1559 29.1683 77.1559 28.709C77.1559 28.085 77.3509 27.552 77.7409 27.11C78.1396 26.668 78.6769 26.3213 79.3529 26.07C78.9889 25.8967 78.6943 25.6583 78.4689 25.355C78.2523 25.0517 78.1439 24.653 78.1439 24.159C78.1439 23.769 78.2869 23.3617 78.5729 22.937C78.8589 22.5123 79.2879 22.1527 79.8599 21.858C79.2013 21.494 78.6813 21.013 78.2999 20.415C77.9186 19.8083 77.7279 19.102 77.7279 18.296C77.7279 17.6373 77.8536 17.0437 78.1049 16.515C78.3649 15.9863 78.7246 15.5357 79.1839 15.163C79.6433 14.7903 80.1849 14.5043 80.8089 14.305C81.4416 14.1057 82.1306 14.006 82.8759 14.006C84.0199 14.006 85.0166 14.2443 85.8659 14.721H89.5709ZM100.923 16.84C100.837 16.9527 100.754 17.0393 100.676 17.1C100.598 17.1607 100.486 17.191 100.338 17.191C100.191 17.191 100.035 17.139 99.8702 17.035C99.7142 16.931 99.5235 16.8183 99.2982 16.697C99.0815 16.567 98.8172 16.45 98.5052 16.346C98.1932 16.242 97.8032 16.19 97.3352 16.19C96.7285 16.19 96.1955 16.2983 95.7362 16.515C95.2855 16.7317 94.9042 17.0437 94.5922 17.451C94.2888 17.8497 94.0592 18.3393 93.9032 18.92C93.7558 19.492 93.6822 20.1377 93.6822 20.857C93.6822 21.6023 93.7645 22.2653 93.9292 22.846C94.0938 23.4267 94.3278 23.9163 94.6312 24.315C94.9432 24.7137 95.3158 25.017 95.7492 25.225C96.1912 25.433 96.6852 25.537 97.2312 25.537C97.7685 25.537 98.2062 25.472 98.5442 25.342C98.8822 25.212 99.1638 25.069 99.3892 24.913C99.6145 24.757 99.8052 24.614 99.9612 24.484C100.126 24.354 100.299 24.289 100.481 24.289C100.707 24.289 100.88 24.3757 101.001 24.549L101.794 25.576C101.474 25.966 101.118 26.2953 100.728 26.564C100.338 26.8327 99.9265 27.0537 99.4932 27.227C99.0598 27.3917 98.6092 27.5087 98.1412 27.578C97.6732 27.656 97.2008 27.695 96.7242 27.695C95.9008 27.695 95.1295 27.5433 94.4102 27.24C93.6995 26.928 93.0755 26.4817 92.5382 25.901C92.0095 25.3117 91.5892 24.5967 91.2772 23.756C90.9738 22.9067 90.8222 21.9403 90.8222 20.857C90.8222 19.8777 90.9608 18.972 91.2382 18.14C91.5155 17.2993 91.9185 16.5757 92.4472 15.969C92.9845 15.3623 93.6475 14.89 94.4362 14.552C95.2248 14.2053 96.1348 14.032 97.1662 14.032C98.1282 14.032 98.9732 14.188 99.7012 14.5C100.438 14.812 101.092 15.254 101.664 15.826L100.923 16.84ZM109.547 14.032C110.526 14.032 111.41 14.1923 112.199 14.513C112.996 14.8337 113.672 15.2887 114.227 15.878C114.79 16.4673 115.224 17.1823 115.527 18.023C115.83 18.8637 115.982 19.8083 115.982 20.857C115.982 21.9057 115.83 22.8503 115.527 23.691C115.224 24.5317 114.79 25.251 114.227 25.849C113.672 26.4383 112.996 26.8933 112.199 27.214C111.41 27.5347 110.526 27.695 109.547 27.695C108.559 27.695 107.666 27.5347 106.869 27.214C106.08 26.8933 105.404 26.4383 104.841 25.849C104.278 25.251 103.844 24.5317 103.541 23.691C103.238 22.8503 103.086 21.9057 103.086 20.857C103.086 19.8083 103.238 18.8637 103.541 18.023C103.844 17.1823 104.278 16.4673 104.841 15.878C105.404 15.2887 106.08 14.8337 106.869 14.513C107.666 14.1923 108.559 14.032 109.547 14.032ZM109.547 25.511C110.743 25.511 111.631 25.1123 112.212 24.315C112.801 23.509 113.096 22.3607 113.096 20.87C113.096 19.3793 112.801 18.231 112.212 17.425C111.631 16.6103 110.743 16.203 109.547 16.203C108.334 16.203 107.432 16.6103 106.843 17.425C106.254 18.231 105.959 19.3793 105.959 20.87C105.959 22.3607 106.254 23.509 106.843 24.315C107.432 25.1123 108.334 25.511 109.547 25.511ZM121.28 15.995C121.566 15.7003 121.861 15.436 122.164 15.202C122.476 14.9593 122.806 14.7513 123.152 14.578C123.499 14.4047 123.867 14.2703 124.257 14.175C124.647 14.0797 125.072 14.032 125.531 14.032C126.259 14.032 126.896 14.1533 127.442 14.396C127.997 14.6387 128.461 14.981 128.833 15.423C129.215 15.865 129.501 16.398 129.691 17.022C129.882 17.6373 129.977 18.3177 129.977 19.063V27.5H127.195V19.063C127.195 18.1703 126.987 17.477 126.571 16.983C126.164 16.489 125.54 16.242 124.699 16.242C124.075 16.242 123.495 16.385 122.957 16.671C122.429 16.957 121.93 17.347 121.462 17.841V27.5H118.667V14.24H120.357C120.739 14.24 120.981 14.4177 121.085 14.773L121.28 15.995Z" fill="#030917"/>
<path fill-rule="evenodd" clip-rule="evenodd" d="M15.6252 31.8283L3.23963 24.6553V15.1094L15.6252 22.2825L18.3883 20.6785L15.6252 19.0908L18.3883 17.5031L23.8947 20.6785L15.6252 25.459L5.98528 19.8945V23.0688L15.6252 28.6344L26.6589 22.2848L28.0306 23.0688V24.6565L15.6252 31.8283ZM12.8807 17.502L7.37436 14.3266L15.6206 9.54612L25.2605 15.1106V11.9352L15.6206 6.36957L4.60665 12.7389L3.23498 11.9352V10.3475L15.6206 3.19536L28.0248 10.3475V19.8922L15.6206 12.7389L12.8761 14.3254L15.6252 15.9166L12.8807 17.502ZM30.7925 26.2418V8.75982L15.6252 0.00488281L8.74717 3.98282L0.476562 8.76446V26.2453L7.37436 30.2244L15.6206 35.006L30.7925 26.2418Z" fill="#030917"/>
</svg>
