<svg width="31" height="35" viewBox="0 0 31 35" fill="none" xmlns="http://www.w3.org/2000/svg">
<path fill-rule="evenodd" clip-rule="evenodd" d="M15.1487 31.8283L2.76307 24.6553V15.1094L15.1487 22.2825L17.9117 20.6785L15.1487 19.0908L17.9117 17.5031L23.4181 20.6785L15.1487 25.459L5.50872 19.8945V23.0688L15.1487 28.6344L26.1823 22.2848L27.554 23.0688V24.6565L15.1487 31.8283ZM12.4042 17.502L6.89779 14.3266L15.144 9.54612L24.784 15.1106V11.9352L15.144 6.36957L4.13009 12.7389L2.75842 11.9352V10.3475L15.144 3.19536L27.5482 10.3475V19.8922L15.144 12.7389L12.3995 14.3254L15.1487 15.9166L12.4042 17.502ZM30.3159 26.2418V8.75982L15.1487 0.00488281L8.27061 3.98282L0 8.76446V26.2453L6.89779 30.2244L15.144 35.006L30.3159 26.2418Z" fill="#030917"/>
</svg>
