<svg width="132" height="35" viewBox="0 0 132 35" fill="none" xmlns="http://www.w3.org/2000/svg">
<path d="M45.5939 11.237V17.23H52.9129V19.687H45.5939V27.5H42.5389V8.78H54.2129V11.237H45.5939ZM59.5813 14.24V27.5H56.7863V14.24H59.5813ZM60.0493 10.236C60.0493 10.4873 59.9973 10.7257 59.8933 10.951C59.798 11.1763 59.6636 11.3757 59.4903 11.549C59.317 11.7137 59.1133 11.848 58.8793 11.952C58.654 12.0473 58.4113 12.095 58.1513 12.095C57.9 12.095 57.6616 12.0473 57.4363 11.952C57.2196 11.848 57.029 11.7137 56.8643 11.549C56.6996 11.3757 56.5653 11.1763 56.4613 10.951C56.366 10.7257 56.3183 10.4873 56.3183 10.236C56.3183 9.976 56.366 9.73333 56.4613 9.508C56.5653 9.28267 56.6996 9.08767 56.8643 8.923C57.029 8.74967 57.2196 8.61533 57.4363 8.52C57.6616 8.416 57.9 8.364 58.1513 8.364C58.4113 8.364 58.654 8.416 58.8793 8.52C59.1133 8.61533 59.317 8.74967 59.4903 8.923C59.6636 9.08767 59.798 9.28267 59.8933 9.508C59.9973 9.73333 60.0493 9.976 60.0493 10.236ZM65.7061 15.995C65.9921 15.7003 66.2868 15.436 66.5901 15.202C66.9021 14.9593 67.2315 14.7513 67.5781 14.578C67.9248 14.4047 68.2931 14.2703 68.6831 14.175C69.0731 14.0797 69.4978 14.032 69.9571 14.032C70.6851 14.032 71.3221 14.1533 71.8681 14.396C72.4228 14.6387 72.8865 14.981 73.2591 15.423C73.6405 15.865 73.9265 16.398 74.1171 17.022C74.3078 17.6373 74.4031 18.3177 74.4031 19.063V27.5H71.6211V19.063C71.6211 18.1703 71.4131 17.477 70.9971 16.983C70.5898 16.489 69.9658 16.242 69.1251 16.242C68.5011 16.242 67.9205 16.385 67.3831 16.671C66.8545 16.957 66.3561 17.347 65.8881 17.841V27.5H63.0931V14.24H64.7831C65.1645 14.24 65.4071 14.4177 65.5111 14.773L65.7061 15.995ZM82.3994 20.753C83.266 20.753 83.916 20.532 84.3494 20.09C84.7827 19.648 84.9994 19.0717 84.9994 18.361C84.9994 17.633 84.7827 17.0567 84.3494 16.632C83.916 16.2073 83.266 15.995 82.3994 15.995C81.5414 15.995 80.8914 16.2073 80.4494 16.632C80.016 17.0567 79.7994 17.633 79.7994 18.361C79.7994 18.7077 79.8557 19.0283 79.9684 19.323C80.081 19.6177 80.2457 19.8733 80.4624 20.09C80.679 20.298 80.9477 20.4627 81.2684 20.584C81.5977 20.6967 81.9747 20.753 82.3994 20.753ZM86.2864 28.15C86.2864 27.8553 86.1997 27.6213 86.0264 27.448C85.8617 27.266 85.6364 27.1273 85.3504 27.032C85.0644 26.928 84.7307 26.8543 84.3494 26.811C83.968 26.759 83.5607 26.7243 83.1274 26.707C82.7027 26.681 82.265 26.6593 81.8144 26.642C81.3724 26.616 80.9434 26.5727 80.5274 26.512C80.1114 26.7287 79.769 26.9887 79.5004 27.292C79.2404 27.5953 79.1104 27.9463 79.1104 28.345C79.1104 28.605 79.1754 28.8477 79.3054 29.073C79.444 29.2983 79.652 29.4933 79.9294 29.658C80.2154 29.8227 80.575 29.9527 81.0084 30.048C81.4504 30.1433 81.979 30.191 82.5944 30.191C83.825 30.191 84.748 30.0003 85.3634 29.619C85.9787 29.2377 86.2864 28.748 86.2864 28.15ZM89.0944 14.721V15.761C89.0944 16.1077 88.8864 16.32 88.4704 16.398L87.1444 16.619C87.3697 17.1217 87.4824 17.6807 87.4824 18.296C87.4824 18.946 87.3524 19.5353 87.0924 20.064C86.841 20.5927 86.49 21.0433 86.0394 21.416C85.5887 21.7887 85.0514 22.0747 84.4274 22.274C83.8034 22.4733 83.1274 22.573 82.3994 22.573C82.122 22.573 81.849 22.56 81.5804 22.534C81.3204 22.4993 81.0647 22.456 80.8134 22.404C80.562 22.5513 80.3757 22.7073 80.2544 22.872C80.133 23.0367 80.0724 23.2057 80.0724 23.379C80.0724 23.665 80.198 23.8773 80.4494 24.016C80.7007 24.1547 81.03 24.2543 81.4374 24.315C81.8534 24.3757 82.3257 24.4147 82.8544 24.432C83.383 24.4493 83.9204 24.4797 84.4664 24.523C85.0124 24.5663 85.5497 24.64 86.0784 24.744C86.607 24.8393 87.075 25.004 87.4824 25.238C87.8984 25.4633 88.232 25.771 88.4834 26.161C88.7347 26.551 88.8604 27.058 88.8604 27.682C88.8604 28.254 88.7174 28.813 88.4314 29.359C88.1454 29.905 87.7294 30.3903 87.1834 30.815C86.646 31.2397 85.9874 31.5777 85.2074 31.829C84.4274 32.089 83.539 32.219 82.5424 32.219C81.5544 32.219 80.692 32.1237 79.9554 31.933C79.2274 31.7423 78.6164 31.4823 78.1224 31.153C77.637 30.8323 77.273 30.4597 77.0304 30.035C76.7964 29.6103 76.6794 29.1683 76.6794 28.709C76.6794 28.085 76.8744 27.552 77.2644 27.11C77.663 26.668 78.2004 26.3213 78.8764 26.07C78.5124 25.8967 78.2177 25.6583 77.9924 25.355C77.7757 25.0517 77.6674 24.653 77.6674 24.159C77.6674 23.769 77.8104 23.3617 78.0964 22.937C78.3824 22.5123 78.8114 22.1527 79.3834 21.858C78.7247 21.494 78.2047 21.013 77.8234 20.415C77.442 19.8083 77.2514 19.102 77.2514 18.296C77.2514 17.6373 77.377 17.0437 77.6284 16.515C77.8884 15.9863 78.248 15.5357 78.7074 15.163C79.1667 14.7903 79.7084 14.5043 80.3324 14.305C80.965 14.1057 81.654 14.006 82.3994 14.006C83.5434 14.006 84.54 14.2443 85.3894 14.721H89.0944ZM100.447 16.84C100.36 16.9527 100.278 17.0393 100.2 17.1C100.122 17.1607 100.009 17.191 99.8616 17.191C99.7143 17.191 99.5583 17.139 99.3936 17.035C99.2376 16.931 99.0469 16.8183 98.8216 16.697C98.6049 16.567 98.3406 16.45 98.0286 16.346C97.7166 16.242 97.3266 16.19 96.8586 16.19C96.2519 16.19 95.7189 16.2983 95.2596 16.515C94.8089 16.7317 94.4276 17.0437 94.1156 17.451C93.8123 17.8497 93.5826 18.3393 93.4266 18.92C93.2793 19.492 93.2056 20.1377 93.2056 20.857C93.2056 21.6023 93.2879 22.2653 93.4526 22.846C93.6173 23.4267 93.8513 23.9163 94.1546 24.315C94.4666 24.7137 94.8393 25.017 95.2726 25.225C95.7146 25.433 96.2086 25.537 96.7546 25.537C97.2919 25.537 97.7296 25.472 98.0676 25.342C98.4056 25.212 98.6873 25.069 98.9126 24.913C99.1379 24.757 99.3286 24.614 99.4846 24.484C99.6493 24.354 99.8226 24.289 100.005 24.289C100.23 24.289 100.403 24.3757 100.525 24.549L101.318 25.576C100.997 25.966 100.642 26.2953 100.252 26.564C99.8616 26.8327 99.4499 27.0537 99.0166 27.227C98.5833 27.3917 98.1326 27.5087 97.6646 27.578C97.1966 27.656 96.7243 27.695 96.2476 27.695C95.4243 27.695 94.6529 27.5433 93.9336 27.24C93.2229 26.928 92.5989 26.4817 92.0616 25.901C91.5329 25.3117 91.1126 24.5967 90.8006 23.756C90.4973 22.9067 90.3456 21.9403 90.3456 20.857C90.3456 19.8777 90.4843 18.972 90.7616 18.14C91.0389 17.2993 91.4419 16.5757 91.9706 15.969C92.5079 15.3623 93.1709 14.89 93.9596 14.552C94.7483 14.2053 95.6583 14.032 96.6896 14.032C97.6516 14.032 98.4966 14.188 99.2246 14.5C99.9613 14.812 100.616 15.254 101.188 15.826L100.447 16.84ZM109.07 14.032C110.05 14.032 110.934 14.1923 111.722 14.513C112.52 14.8337 113.196 15.2887 113.75 15.878C114.314 16.4673 114.747 17.1823 115.05 18.023C115.354 18.8637 115.505 19.8083 115.505 20.857C115.505 21.9057 115.354 22.8503 115.05 23.691C114.747 24.5317 114.314 25.251 113.75 25.849C113.196 26.4383 112.52 26.8933 111.722 27.214C110.934 27.5347 110.05 27.695 109.07 27.695C108.082 27.695 107.19 27.5347 106.392 27.214C105.604 26.8933 104.928 26.4383 104.364 25.849C103.801 25.251 103.368 24.5317 103.064 23.691C102.761 22.8503 102.609 21.9057 102.609 20.857C102.609 19.8083 102.761 18.8637 103.064 18.023C103.368 17.1823 103.801 16.4673 104.364 15.878C104.928 15.2887 105.604 14.8337 106.392 14.513C107.19 14.1923 108.082 14.032 109.07 14.032ZM109.07 25.511C110.266 25.511 111.155 25.1123 111.735 24.315C112.325 23.509 112.619 22.3607 112.619 20.87C112.619 19.3793 112.325 18.231 111.735 17.425C111.155 16.6103 110.266 16.203 109.07 16.203C107.857 16.203 106.956 16.6103 106.366 17.425C105.777 18.231 105.482 19.3793 105.482 20.87C105.482 22.3607 105.777 23.509 106.366 24.315C106.956 25.1123 107.857 25.511 109.07 25.511ZM120.804 15.995C121.09 15.7003 121.384 15.436 121.688 15.202C122 14.9593 122.329 14.7513 122.676 14.578C123.022 14.4047 123.391 14.2703 123.781 14.175C124.171 14.0797 124.595 14.032 125.055 14.032C125.783 14.032 126.42 14.1533 126.966 14.396C127.52 14.6387 127.984 14.981 128.357 15.423C128.738 15.865 129.024 16.398 129.215 17.022C129.405 17.6373 129.501 18.3177 129.501 19.063V27.5H126.719V19.063C126.719 18.1703 126.511 17.477 126.095 16.983C125.687 16.489 125.063 16.242 124.223 16.242C123.599 16.242 123.018 16.385 122.481 16.671C121.952 16.957 121.454 17.347 120.986 17.841V27.5H118.191V14.24H119.881C120.262 14.24 120.505 14.4177 120.609 14.773L120.804 15.995Z" fill="white"/>
<g clip-path="url(#clip0_77_139)">
<path fill-rule="evenodd" clip-rule="evenodd" d="M15.1487 31.8283L2.76307 24.6553V15.1094L15.1487 22.2825L17.9117 20.6785L15.1487 19.0908L17.9117 17.5031L23.4181 20.6785L15.1487 25.459L5.50872 19.8945V23.0688L15.1487 28.6344L26.1823 22.2848L27.554 23.0688V24.6565L15.1487 31.8283ZM12.4042 17.502L6.89779 14.3266L15.144 9.54612L24.784 15.1106V11.9352L15.144 6.36957L4.13009 12.7389L2.75842 11.9352V10.3475L15.144 3.19536L27.5482 10.3475V19.8922L15.144 12.7389L12.3995 14.3254L15.1487 15.9166L12.4042 17.502ZM30.3159 26.2418V8.75982L15.1487 0.00488281L8.27061 3.98282L0 8.76446V26.2453L6.89779 30.2244L15.144 35.006L30.3159 26.2418Z" fill="white" stroke="white"/>
</g>
<defs>
<clipPath id="clip0_77_139">
<rect width="30.3159" height="35" fill="white"/>
</clipPath>
</defs>
</svg>
